<svg xmlns="http://www.w3.org/2000/svg" xmlns:xlink="http://www.w3.org/1999/xlink" width="1920" zoomAndPan="magnify" viewBox="0 0 1440 809.999993" height="1080" preserveAspectRatio="xMidYMid meet" version="1.0"><defs><g/><clipPath id="72ab14cfa4"><path d="M 562.839844 19 L 877.839844 19 L 877.839844 472 L 562.839844 472 Z M 562.839844 19 " clip-rule="nonzero"/></clipPath><clipPath id="da45917115"><path d="M 562.839844 18.019531 L 877.839844 18.019531 L 877.839844 472.519531 L 562.839844 472.519531 Z M 562.839844 18.019531 " clip-rule="nonzero"/></clipPath><clipPath id="8023d2c67f"><path d="M 21.503906 641 L 1418.753906 641 L 1418.753906 707 L 21.503906 707 Z M 21.503906 641 " clip-rule="nonzero"/></clipPath><clipPath id="7eaad87a62"><path d="M 21.503906 640.210938 L 1418.753906 640.210938 L 1418.753906 708 L 21.503906 708 Z M 21.503906 640.210938 " clip-rule="nonzero"/></clipPath><clipPath id="b7bc2418b6"><path d="M 708.167969 604 L 732 604 L 732 631.375 L 708.167969 631.375 Z M 708.167969 604 " clip-rule="nonzero"/></clipPath><clipPath id="7e4e22ad08"><path d="M 708.167969 481.375 L 732 481.375 L 732 509 L 708.167969 509 Z M 708.167969 481.375 " clip-rule="nonzero"/></clipPath></defs><g fill="#000000" fill-opacity="1"><g transform="translate(597.820813, 58.521367)"><g><path d="M 7.84375 0 L 4.984375 0 L 4.984375 -7.84375 L 5.015625 -9.140625 L 5.0625 -10.546875 C 4.582031 -10.066406 4.25 -9.753906 4.0625 -9.609375 L 2.5 -8.359375 L 1.125 -10.078125 L 5.5 -13.5625 L 7.84375 -13.5625 Z M 7.84375 0 "/></g></g></g><g fill="#000000" fill-opacity="1"><g transform="translate(675.650649, 58.521367)"><g><path d="M 10.25 0 L 0.765625 0 L 0.765625 -2 L 4.171875 -5.4375 C 5.171875 -6.46875 5.828125 -7.179688 6.140625 -7.578125 C 6.453125 -7.984375 6.675781 -8.351562 6.8125 -8.6875 C 6.945312 -9.03125 7.015625 -9.382812 7.015625 -9.75 C 7.015625 -10.289062 6.863281 -10.691406 6.5625 -10.953125 C 6.257812 -11.222656 5.859375 -11.359375 5.359375 -11.359375 C 4.835938 -11.359375 4.328125 -11.238281 3.828125 -11 C 3.335938 -10.757812 2.820312 -10.414062 2.28125 -9.96875 L 0.71875 -11.8125 C 1.382812 -12.382812 1.9375 -12.785156 2.375 -13.015625 C 2.820312 -13.253906 3.304688 -13.4375 3.828125 -13.5625 C 4.347656 -13.695312 4.925781 -13.765625 5.5625 -13.765625 C 6.414062 -13.765625 7.164062 -13.609375 7.8125 -13.296875 C 8.457031 -12.984375 8.957031 -12.546875 9.3125 -11.984375 C 9.675781 -11.429688 9.859375 -10.796875 9.859375 -10.078125 C 9.859375 -9.453125 9.75 -8.863281 9.53125 -8.3125 C 9.3125 -7.769531 8.972656 -7.210938 8.515625 -6.640625 C 8.054688 -6.066406 7.242188 -5.25 6.078125 -4.1875 L 4.328125 -2.546875 L 4.328125 -2.40625 L 10.25 -2.40625 Z M 10.25 0 "/></g></g></g><g fill="#000000" fill-opacity="1"><g transform="translate(753.480437, 58.521367)"><g><path d="M 9.71875 -10.53125 C 9.71875 -9.6875 9.457031 -8.96875 8.9375 -8.375 C 8.425781 -7.78125 7.707031 -7.367188 6.78125 -7.140625 L 6.78125 -7.09375 C 7.875 -6.957031 8.703125 -6.625 9.265625 -6.09375 C 9.828125 -5.5625 10.109375 -4.847656 10.109375 -3.953125 C 10.109375 -2.648438 9.632812 -1.632812 8.6875 -0.90625 C 7.75 -0.175781 6.398438 0.1875 4.640625 0.1875 C 3.171875 0.1875 1.863281 -0.0546875 0.71875 -0.546875 L 0.71875 -2.984375 C 1.25 -2.722656 1.828125 -2.507812 2.453125 -2.34375 C 3.085938 -2.175781 3.710938 -2.09375 4.328125 -2.09375 C 5.273438 -2.09375 5.972656 -2.25 6.421875 -2.5625 C 6.878906 -2.882812 7.109375 -3.40625 7.109375 -4.125 C 7.109375 -4.757812 6.847656 -5.207031 6.328125 -5.46875 C 5.804688 -5.738281 4.976562 -5.875 3.84375 -5.875 L 2.8125 -5.875 L 2.8125 -8.078125 L 3.859375 -8.078125 C 4.910156 -8.078125 5.675781 -8.210938 6.15625 -8.484375 C 6.644531 -8.753906 6.890625 -9.226562 6.890625 -9.90625 C 6.890625 -10.925781 6.25 -11.4375 4.96875 -11.4375 C 4.519531 -11.4375 4.0625 -11.363281 3.59375 -11.21875 C 3.132812 -11.070312 2.625 -10.816406 2.0625 -10.453125 L 0.75 -12.421875 C 1.976562 -13.316406 3.453125 -13.765625 5.171875 -13.765625 C 6.578125 -13.765625 7.6875 -13.476562 8.5 -12.90625 C 9.3125 -12.332031 9.71875 -11.539062 9.71875 -10.53125 Z M 9.71875 -10.53125 "/></g></g></g><g fill="#000000" fill-opacity="1"><g transform="translate(831.310345, 58.521367)"><g><path d="M 10.546875 -2.8125 L 8.921875 -2.8125 L 8.921875 0 L 6.109375 0 L 6.109375 -2.8125 L 0.328125 -2.8125 L 0.328125 -4.8125 L 6.265625 -13.5625 L 8.921875 -13.5625 L 8.921875 -5.03125 L 10.546875 -5.03125 Z M 6.109375 -5.03125 L 6.109375 -7.34375 C 6.109375 -7.71875 6.125 -8.269531 6.15625 -9 C 6.1875 -9.738281 6.210938 -10.164062 6.234375 -10.28125 L 6.15625 -10.28125 C 5.925781 -9.769531 5.648438 -9.273438 5.328125 -8.796875 L 2.84375 -5.03125 Z M 6.109375 -5.03125 "/></g></g></g><g fill="#000000" fill-opacity="1"><g transform="translate(597.820813, 123.021357)"><g><path d="M 5.703125 -8.671875 C 7.003906 -8.671875 8.039062 -8.300781 8.8125 -7.5625 C 9.59375 -6.820312 9.984375 -5.8125 9.984375 -4.53125 C 9.984375 -3.019531 9.515625 -1.851562 8.578125 -1.03125 C 7.648438 -0.21875 6.316406 0.1875 4.578125 0.1875 C 3.066406 0.1875 1.847656 -0.0546875 0.921875 -0.546875 L 0.921875 -3.03125 C 1.410156 -2.769531 1.976562 -2.554688 2.625 -2.390625 C 3.28125 -2.222656 3.898438 -2.140625 4.484375 -2.140625 C 6.234375 -2.140625 7.109375 -2.859375 7.109375 -4.296875 C 7.109375 -5.660156 6.203125 -6.34375 4.390625 -6.34375 C 4.054688 -6.34375 3.691406 -6.3125 3.296875 -6.25 C 2.898438 -6.1875 2.582031 -6.117188 2.34375 -6.046875 L 1.203125 -6.65625 L 1.703125 -13.5625 L 9.0625 -13.5625 L 9.0625 -11.140625 L 4.21875 -11.140625 L 3.96875 -8.46875 L 4.296875 -8.53125 C 4.671875 -8.625 5.140625 -8.671875 5.703125 -8.671875 Z M 5.703125 -8.671875 "/></g></g></g><g fill="#000000" fill-opacity="1"><g transform="translate(675.650649, 123.021371)"><g><path d="M 0.671875 -5.765625 C 0.671875 -8.441406 1.238281 -10.4375 2.375 -11.75 C 3.507812 -13.0625 5.207031 -13.71875 7.46875 -13.71875 C 8.238281 -13.71875 8.84375 -13.671875 9.28125 -13.578125 L 9.28125 -11.296875 C 8.738281 -11.410156 8.195312 -11.46875 7.65625 -11.46875 C 6.664062 -11.46875 5.859375 -11.316406 5.234375 -11.015625 C 4.617188 -10.722656 4.15625 -10.285156 3.84375 -9.703125 C 3.539062 -9.128906 3.359375 -8.304688 3.296875 -7.234375 L 3.421875 -7.234375 C 4.035156 -8.285156 5.015625 -8.8125 6.359375 -8.8125 C 7.578125 -8.8125 8.53125 -8.429688 9.21875 -7.671875 C 9.90625 -6.910156 10.25 -5.859375 10.25 -4.515625 C 10.25 -3.066406 9.835938 -1.921875 9.015625 -1.078125 C 8.203125 -0.234375 7.070312 0.1875 5.625 0.1875 C 4.625 0.1875 3.75 -0.0390625 3 -0.5 C 2.257812 -0.96875 1.6875 -1.644531 1.28125 -2.53125 C 0.875 -3.425781 0.671875 -4.503906 0.671875 -5.765625 Z M 5.5625 -2.109375 C 6.175781 -2.109375 6.644531 -2.3125 6.96875 -2.71875 C 7.300781 -3.132812 7.46875 -3.722656 7.46875 -4.484375 C 7.46875 -5.140625 7.3125 -5.65625 7 -6.03125 C 6.695312 -6.414062 6.238281 -6.609375 5.625 -6.609375 C 5.039062 -6.609375 4.539062 -6.421875 4.125 -6.046875 C 3.71875 -5.671875 3.515625 -5.234375 3.515625 -4.734375 C 3.515625 -3.992188 3.707031 -3.367188 4.09375 -2.859375 C 4.476562 -2.359375 4.96875 -2.109375 5.5625 -2.109375 Z M 5.5625 -2.109375 "/></g></g></g><g fill="#000000" fill-opacity="1"><g transform="translate(753.480437, 123.021371)"><g><path d="M 2.109375 0 L 7.203125 -11.140625 L 0.515625 -11.140625 L 0.515625 -13.546875 L 10.25 -13.546875 L 10.25 -11.75 L 5.109375 0 Z M 2.109375 0 "/></g></g></g><g fill="#000000" fill-opacity="1"><g transform="translate(831.310345, 123.021371)"><g><path d="M 5.4375 -13.734375 C 6.738281 -13.734375 7.785156 -13.4375 8.578125 -12.84375 C 9.367188 -12.257812 9.765625 -11.46875 9.765625 -10.46875 C 9.765625 -9.769531 9.570312 -9.148438 9.1875 -8.609375 C 8.8125 -8.066406 8.195312 -7.582031 7.34375 -7.15625 C 8.351562 -6.613281 9.078125 -6.046875 9.515625 -5.453125 C 9.960938 -4.867188 10.1875 -4.222656 10.1875 -3.515625 C 10.1875 -2.398438 9.75 -1.503906 8.875 -0.828125 C 8.007812 -0.148438 6.863281 0.1875 5.4375 0.1875 C 3.945312 0.1875 2.78125 -0.125 1.9375 -0.75 C 1.09375 -1.382812 0.671875 -2.28125 0.671875 -3.4375 C 0.671875 -4.21875 0.875 -4.90625 1.28125 -5.5 C 1.695312 -6.101562 2.359375 -6.632812 3.265625 -7.09375 C 2.492188 -7.582031 1.9375 -8.101562 1.59375 -8.65625 C 1.25 -9.207031 1.078125 -9.816406 1.078125 -10.484375 C 1.078125 -11.453125 1.476562 -12.234375 2.28125 -12.828125 C 3.09375 -13.429688 4.144531 -13.734375 5.4375 -13.734375 Z M 3.328125 -3.609375 C 3.328125 -3.078125 3.507812 -2.660156 3.875 -2.359375 C 4.25 -2.066406 4.757812 -1.921875 5.40625 -1.921875 C 6.113281 -1.921875 6.644531 -2.070312 7 -2.375 C 7.351562 -2.6875 7.53125 -3.09375 7.53125 -3.59375 C 7.53125 -4.007812 7.351562 -4.394531 7 -4.75 C 6.644531 -5.113281 6.078125 -5.5 5.296875 -5.90625 C 3.984375 -5.300781 3.328125 -4.535156 3.328125 -3.609375 Z M 5.421875 -11.640625 C 4.929688 -11.640625 4.535156 -11.515625 4.234375 -11.265625 C 3.929688 -11.015625 3.78125 -10.679688 3.78125 -10.265625 C 3.78125 -9.890625 3.898438 -9.554688 4.140625 -9.265625 C 4.378906 -8.972656 4.8125 -8.671875 5.4375 -8.359375 C 6.039062 -8.640625 6.460938 -8.925781 6.703125 -9.21875 C 6.941406 -9.519531 7.0625 -9.867188 7.0625 -10.265625 C 7.0625 -10.691406 6.90625 -11.023438 6.59375 -11.265625 C 6.289062 -11.515625 5.898438 -11.640625 5.421875 -11.640625 Z M 5.421875 -11.640625 "/></g></g></g><g fill="#000000" fill-opacity="1"><g transform="translate(597.820813, 187.521354)"><g><path d="M 10.1875 -7.78125 C 10.1875 -5.101562 9.625 -3.101562 8.5 -1.78125 C 7.375 -0.46875 5.671875 0.1875 3.390625 0.1875 C 2.585938 0.1875 1.976562 0.144531 1.5625 0.0625 L 1.5625 -2.25 C 2.082031 -2.113281 2.625 -2.046875 3.1875 -2.046875 C 4.144531 -2.046875 4.929688 -2.1875 5.546875 -2.46875 C 6.171875 -2.75 6.644531 -3.191406 6.96875 -3.796875 C 7.300781 -4.398438 7.492188 -5.234375 7.546875 -6.296875 L 7.4375 -6.296875 C 7.070312 -5.710938 6.65625 -5.300781 6.1875 -5.0625 C 5.71875 -4.832031 5.128906 -4.71875 4.421875 -4.71875 C 3.242188 -4.71875 2.3125 -5.09375 1.625 -5.84375 C 0.945312 -6.601562 0.609375 -7.660156 0.609375 -9.015625 C 0.609375 -10.460938 1.019531 -11.609375 1.84375 -12.453125 C 2.675781 -13.296875 3.800781 -13.71875 5.21875 -13.71875 C 6.21875 -13.71875 7.09375 -13.484375 7.84375 -13.015625 C 8.601562 -12.546875 9.179688 -11.863281 9.578125 -10.96875 C 9.984375 -10.070312 10.1875 -9.007812 10.1875 -7.78125 Z M 5.28125 -11.421875 C 4.6875 -11.421875 4.222656 -11.21875 3.890625 -10.8125 C 3.554688 -10.40625 3.390625 -9.816406 3.390625 -9.046875 C 3.390625 -8.390625 3.539062 -7.867188 3.84375 -7.484375 C 4.144531 -7.097656 4.601562 -6.90625 5.21875 -6.90625 C 5.800781 -6.90625 6.300781 -7.09375 6.71875 -7.46875 C 7.132812 -7.851562 7.34375 -8.296875 7.34375 -8.796875 C 7.34375 -9.535156 7.144531 -10.15625 6.75 -10.65625 C 6.363281 -11.164062 5.875 -11.421875 5.28125 -11.421875 Z M 5.28125 -11.421875 "/></g></g></g><g fill="#000000" fill-opacity="1"><g transform="translate(670.236587, 187.521354)"><g><path d="M 7.84375 0 L 4.984375 0 L 4.984375 -7.84375 L 5.015625 -9.140625 L 5.0625 -10.546875 C 4.582031 -10.066406 4.25 -9.753906 4.0625 -9.609375 L 2.5 -8.359375 L 1.125 -10.078125 L 5.5 -13.5625 L 7.84375 -13.5625 Z M 7.84375 0 "/></g></g></g><g fill="#000000" fill-opacity="1"><g transform="translate(681.079577, 187.521354)"><g><path d="M 10.171875 -6.78125 C 10.171875 -4.414062 9.78125 -2.660156 9 -1.515625 C 8.226562 -0.378906 7.035156 0.1875 5.421875 0.1875 C 3.859375 0.1875 2.675781 -0.398438 1.875 -1.578125 C 1.082031 -2.753906 0.6875 -4.488281 0.6875 -6.78125 C 0.6875 -9.175781 1.070312 -10.941406 1.84375 -12.078125 C 2.613281 -13.210938 3.804688 -13.78125 5.421875 -13.78125 C 6.984375 -13.78125 8.164062 -13.1875 8.96875 -12 C 9.769531 -10.8125 10.171875 -9.070312 10.171875 -6.78125 Z M 3.53125 -6.78125 C 3.53125 -5.113281 3.671875 -3.921875 3.953125 -3.203125 C 4.242188 -2.484375 4.734375 -2.125 5.421875 -2.125 C 6.085938 -2.125 6.566406 -2.488281 6.859375 -3.21875 C 7.160156 -3.945312 7.3125 -5.132812 7.3125 -6.78125 C 7.3125 -8.445312 7.160156 -9.640625 6.859375 -10.359375 C 6.554688 -11.085938 6.078125 -11.453125 5.421875 -11.453125 C 4.742188 -11.453125 4.257812 -11.085938 3.96875 -10.359375 C 3.675781 -9.640625 3.53125 -8.445312 3.53125 -6.78125 Z M 3.53125 -6.78125 "/></g></g></g><g fill="#000000" fill-opacity="1"><g transform="translate(748.066375, 187.521354)"><g><path d="M 7.84375 0 L 4.984375 0 L 4.984375 -7.84375 L 5.015625 -9.140625 L 5.0625 -10.546875 C 4.582031 -10.066406 4.25 -9.753906 4.0625 -9.609375 L 2.5 -8.359375 L 1.125 -10.078125 L 5.5 -13.5625 L 7.84375 -13.5625 Z M 7.84375 0 "/></g></g></g><g fill="#000000" fill-opacity="1"><g transform="translate(758.909365, 187.521354)"><g><path d="M 7.84375 0 L 4.984375 0 L 4.984375 -7.84375 L 5.015625 -9.140625 L 5.0625 -10.546875 C 4.582031 -10.066406 4.25 -9.753906 4.0625 -9.609375 L 2.5 -8.359375 L 1.125 -10.078125 L 5.5 -13.5625 L 7.84375 -13.5625 Z M 7.84375 0 "/></g></g></g><g fill="#000000" fill-opacity="1"><g transform="translate(825.896283, 187.521354)"><g><path d="M 7.84375 0 L 4.984375 0 L 4.984375 -7.84375 L 5.015625 -9.140625 L 5.0625 -10.546875 C 4.582031 -10.066406 4.25 -9.753906 4.0625 -9.609375 L 2.5 -8.359375 L 1.125 -10.078125 L 5.5 -13.5625 L 7.84375 -13.5625 Z M 7.84375 0 "/></g></g></g><g fill="#000000" fill-opacity="1"><g transform="translate(836.739273, 187.521354)"><g><path d="M 10.25 0 L 0.765625 0 L 0.765625 -2 L 4.171875 -5.4375 C 5.171875 -6.46875 5.828125 -7.179688 6.140625 -7.578125 C 6.453125 -7.984375 6.675781 -8.351562 6.8125 -8.6875 C 6.945312 -9.03125 7.015625 -9.382812 7.015625 -9.75 C 7.015625 -10.289062 6.863281 -10.691406 6.5625 -10.953125 C 6.257812 -11.222656 5.859375 -11.359375 5.359375 -11.359375 C 4.835938 -11.359375 4.328125 -11.238281 3.828125 -11 C 3.335938 -10.757812 2.820312 -10.414062 2.28125 -9.96875 L 0.71875 -11.8125 C 1.382812 -12.382812 1.9375 -12.785156 2.375 -13.015625 C 2.820312 -13.253906 3.304688 -13.4375 3.828125 -13.5625 C 4.347656 -13.695312 4.925781 -13.765625 5.5625 -13.765625 C 6.414062 -13.765625 7.164062 -13.609375 7.8125 -13.296875 C 8.457031 -12.984375 8.957031 -12.546875 9.3125 -11.984375 C 9.675781 -11.429688 9.859375 -10.796875 9.859375 -10.078125 C 9.859375 -9.453125 9.75 -8.863281 9.53125 -8.3125 C 9.3125 -7.769531 8.972656 -7.210938 8.515625 -6.640625 C 8.054688 -6.066406 7.242188 -5.25 6.078125 -4.1875 L 4.328125 -2.546875 L 4.328125 -2.40625 L 10.25 -2.40625 Z M 10.25 0 "/></g></g></g><g fill="#000000" fill-opacity="1"><g transform="translate(592.406751, 252.021351)"><g><path d="M 7.84375 0 L 4.984375 0 L 4.984375 -7.84375 L 5.015625 -9.140625 L 5.0625 -10.546875 C 4.582031 -10.066406 4.25 -9.753906 4.0625 -9.609375 L 2.5 -8.359375 L 1.125 -10.078125 L 5.5 -13.5625 L 7.84375 -13.5625 Z M 7.84375 0 "/></g></g></g><g fill="#000000" fill-opacity="1"><g transform="translate(603.249741, 252.021351)"><g><path d="M 9.71875 -10.53125 C 9.71875 -9.6875 9.457031 -8.96875 8.9375 -8.375 C 8.425781 -7.78125 7.707031 -7.367188 6.78125 -7.140625 L 6.78125 -7.09375 C 7.875 -6.957031 8.703125 -6.625 9.265625 -6.09375 C 9.828125 -5.5625 10.109375 -4.847656 10.109375 -3.953125 C 10.109375 -2.648438 9.632812 -1.632812 8.6875 -0.90625 C 7.75 -0.175781 6.398438 0.1875 4.640625 0.1875 C 3.171875 0.1875 1.863281 -0.0546875 0.71875 -0.546875 L 0.71875 -2.984375 C 1.25 -2.722656 1.828125 -2.507812 2.453125 -2.34375 C 3.085938 -2.175781 3.710938 -2.09375 4.328125 -2.09375 C 5.273438 -2.09375 5.972656 -2.25 6.421875 -2.5625 C 6.878906 -2.882812 7.109375 -3.40625 7.109375 -4.125 C 7.109375 -4.757812 6.847656 -5.207031 6.328125 -5.46875 C 5.804688 -5.738281 4.976562 -5.875 3.84375 -5.875 L 2.8125 -5.875 L 2.8125 -8.078125 L 3.859375 -8.078125 C 4.910156 -8.078125 5.675781 -8.210938 6.15625 -8.484375 C 6.644531 -8.753906 6.890625 -9.226562 6.890625 -9.90625 C 6.890625 -10.925781 6.25 -11.4375 4.96875 -11.4375 C 4.519531 -11.4375 4.0625 -11.363281 3.59375 -11.21875 C 3.132812 -11.070312 2.625 -10.816406 2.0625 -10.453125 L 0.75 -12.421875 C 1.976562 -13.316406 3.453125 -13.765625 5.171875 -13.765625 C 6.578125 -13.765625 7.6875 -13.476562 8.5 -12.90625 C 9.3125 -12.332031 9.71875 -11.539062 9.71875 -10.53125 Z M 9.71875 -10.53125 "/></g></g></g><g fill="#000000" fill-opacity="1"><g transform="translate(670.236587, 252.021365)"><g><path d="M 7.84375 0 L 4.984375 0 L 4.984375 -7.84375 L 5.015625 -9.140625 L 5.0625 -10.546875 C 4.582031 -10.066406 4.25 -9.753906 4.0625 -9.609375 L 2.5 -8.359375 L 1.125 -10.078125 L 5.5 -13.5625 L 7.84375 -13.5625 Z M 7.84375 0 "/></g></g></g><g fill="#000000" fill-opacity="1"><g transform="translate(681.079577, 252.021365)"><g><path d="M 10.546875 -2.8125 L 8.921875 -2.8125 L 8.921875 0 L 6.109375 0 L 6.109375 -2.8125 L 0.328125 -2.8125 L 0.328125 -4.8125 L 6.265625 -13.5625 L 8.921875 -13.5625 L 8.921875 -5.03125 L 10.546875 -5.03125 Z M 6.109375 -5.03125 L 6.109375 -7.34375 C 6.109375 -7.71875 6.125 -8.269531 6.15625 -9 C 6.1875 -9.738281 6.210938 -10.164062 6.234375 -10.28125 L 6.15625 -10.28125 C 5.925781 -9.769531 5.648438 -9.273438 5.328125 -8.796875 L 2.84375 -5.03125 Z M 6.109375 -5.03125 "/></g></g></g><g fill="#000000" fill-opacity="1"><g transform="translate(748.066375, 252.021365)"><g><path d="M 7.84375 0 L 4.984375 0 L 4.984375 -7.84375 L 5.015625 -9.140625 L 5.0625 -10.546875 C 4.582031 -10.066406 4.25 -9.753906 4.0625 -9.609375 L 2.5 -8.359375 L 1.125 -10.078125 L 5.5 -13.5625 L 7.84375 -13.5625 Z M 7.84375 0 "/></g></g></g><g fill="#000000" fill-opacity="1"><g transform="translate(758.909365, 252.021365)"><g><path d="M 5.703125 -8.671875 C 7.003906 -8.671875 8.039062 -8.300781 8.8125 -7.5625 C 9.59375 -6.820312 9.984375 -5.8125 9.984375 -4.53125 C 9.984375 -3.019531 9.515625 -1.851562 8.578125 -1.03125 C 7.648438 -0.21875 6.316406 0.1875 4.578125 0.1875 C 3.066406 0.1875 1.847656 -0.0546875 0.921875 -0.546875 L 0.921875 -3.03125 C 1.410156 -2.769531 1.976562 -2.554688 2.625 -2.390625 C 3.28125 -2.222656 3.898438 -2.140625 4.484375 -2.140625 C 6.234375 -2.140625 7.109375 -2.859375 7.109375 -4.296875 C 7.109375 -5.660156 6.203125 -6.34375 4.390625 -6.34375 C 4.054688 -6.34375 3.691406 -6.3125 3.296875 -6.25 C 2.898438 -6.1875 2.582031 -6.117188 2.34375 -6.046875 L 1.203125 -6.65625 L 1.703125 -13.5625 L 9.0625 -13.5625 L 9.0625 -11.140625 L 4.21875 -11.140625 L 3.96875 -8.46875 L 4.296875 -8.53125 C 4.671875 -8.625 5.140625 -8.671875 5.703125 -8.671875 Z M 5.703125 -8.671875 "/></g></g></g><g fill="#000000" fill-opacity="1"><g transform="translate(825.896283, 252.021365)"><g><path d="M 7.84375 0 L 4.984375 0 L 4.984375 -7.84375 L 5.015625 -9.140625 L 5.0625 -10.546875 C 4.582031 -10.066406 4.25 -9.753906 4.0625 -9.609375 L 2.5 -8.359375 L 1.125 -10.078125 L 5.5 -13.5625 L 7.84375 -13.5625 Z M 7.84375 0 "/></g></g></g><g fill="#000000" fill-opacity="1"><g transform="translate(836.739273, 252.021365)"><g><path d="M 0.671875 -5.765625 C 0.671875 -8.441406 1.238281 -10.4375 2.375 -11.75 C 3.507812 -13.0625 5.207031 -13.71875 7.46875 -13.71875 C 8.238281 -13.71875 8.84375 -13.671875 9.28125 -13.578125 L 9.28125 -11.296875 C 8.738281 -11.410156 8.195312 -11.46875 7.65625 -11.46875 C 6.664062 -11.46875 5.859375 -11.316406 5.234375 -11.015625 C 4.617188 -10.722656 4.15625 -10.285156 3.84375 -9.703125 C 3.539062 -9.128906 3.359375 -8.304688 3.296875 -7.234375 L 3.421875 -7.234375 C 4.035156 -8.285156 5.015625 -8.8125 6.359375 -8.8125 C 7.578125 -8.8125 8.53125 -8.429688 9.21875 -7.671875 C 9.90625 -6.910156 10.25 -5.859375 10.25 -4.515625 C 10.25 -3.066406 9.835938 -1.921875 9.015625 -1.078125 C 8.203125 -0.234375 7.070312 0.1875 5.625 0.1875 C 4.625 0.1875 3.75 -0.0390625 3 -0.5 C 2.257812 -0.96875 1.6875 -1.644531 1.28125 -2.53125 C 0.875 -3.425781 0.671875 -4.503906 0.671875 -5.765625 Z M 5.5625 -2.109375 C 6.175781 -2.109375 6.644531 -2.3125 6.96875 -2.71875 C 7.300781 -3.132812 7.46875 -3.722656 7.46875 -4.484375 C 7.46875 -5.140625 7.3125 -5.65625 7 -6.03125 C 6.695312 -6.414062 6.238281 -6.609375 5.625 -6.609375 C 5.039062 -6.609375 4.539062 -6.421875 4.125 -6.046875 C 3.71875 -5.671875 3.515625 -5.234375 3.515625 -4.734375 C 3.515625 -3.992188 3.707031 -3.367188 4.09375 -2.859375 C 4.476562 -2.359375 4.96875 -2.109375 5.5625 -2.109375 Z M 5.5625 -2.109375 "/></g></g></g><g fill="#000000" fill-opacity="1"><g transform="translate(592.406751, 316.521362)"><g><path d="M 7.84375 0 L 4.984375 0 L 4.984375 -7.84375 L 5.015625 -9.140625 L 5.0625 -10.546875 C 4.582031 -10.066406 4.25 -9.753906 4.0625 -9.609375 L 2.5 -8.359375 L 1.125 -10.078125 L 5.5 -13.5625 L 7.84375 -13.5625 Z M 7.84375 0 "/></g></g></g><g fill="#000000" fill-opacity="1"><g transform="translate(603.249741, 316.521362)"><g><path d="M 2.109375 0 L 7.203125 -11.140625 L 0.515625 -11.140625 L 0.515625 -13.546875 L 10.25 -13.546875 L 10.25 -11.75 L 5.109375 0 Z M 2.109375 0 "/></g></g></g><g fill="#000000" fill-opacity="1"><g transform="translate(670.236587, 316.521362)"><g><path d="M 7.84375 0 L 4.984375 0 L 4.984375 -7.84375 L 5.015625 -9.140625 L 5.0625 -10.546875 C 4.582031 -10.066406 4.25 -9.753906 4.0625 -9.609375 L 2.5 -8.359375 L 1.125 -10.078125 L 5.5 -13.5625 L 7.84375 -13.5625 Z M 7.84375 0 "/></g></g></g><g fill="#000000" fill-opacity="1"><g transform="translate(681.079577, 316.521362)"><g><path d="M 5.4375 -13.734375 C 6.738281 -13.734375 7.785156 -13.4375 8.578125 -12.84375 C 9.367188 -12.257812 9.765625 -11.46875 9.765625 -10.46875 C 9.765625 -9.769531 9.570312 -9.148438 9.1875 -8.609375 C 8.8125 -8.066406 8.195312 -7.582031 7.34375 -7.15625 C 8.351562 -6.613281 9.078125 -6.046875 9.515625 -5.453125 C 9.960938 -4.867188 10.1875 -4.222656 10.1875 -3.515625 C 10.1875 -2.398438 9.75 -1.503906 8.875 -0.828125 C 8.007812 -0.148438 6.863281 0.1875 5.4375 0.1875 C 3.945312 0.1875 2.78125 -0.125 1.9375 -0.75 C 1.09375 -1.382812 0.671875 -2.28125 0.671875 -3.4375 C 0.671875 -4.21875 0.875 -4.90625 1.28125 -5.5 C 1.695312 -6.101562 2.359375 -6.632812 3.265625 -7.09375 C 2.492188 -7.582031 1.9375 -8.101562 1.59375 -8.65625 C 1.25 -9.207031 1.078125 -9.816406 1.078125 -10.484375 C 1.078125 -11.453125 1.476562 -12.234375 2.28125 -12.828125 C 3.09375 -13.429688 4.144531 -13.734375 5.4375 -13.734375 Z M 3.328125 -3.609375 C 3.328125 -3.078125 3.507812 -2.660156 3.875 -2.359375 C 4.25 -2.066406 4.757812 -1.921875 5.40625 -1.921875 C 6.113281 -1.921875 6.644531 -2.070312 7 -2.375 C 7.351562 -2.6875 7.53125 -3.09375 7.53125 -3.59375 C 7.53125 -4.007812 7.351562 -4.394531 7 -4.75 C 6.644531 -5.113281 6.078125 -5.5 5.296875 -5.90625 C 3.984375 -5.300781 3.328125 -4.535156 3.328125 -3.609375 Z M 5.421875 -11.640625 C 4.929688 -11.640625 4.535156 -11.515625 4.234375 -11.265625 C 3.929688 -11.015625 3.78125 -10.679688 3.78125 -10.265625 C 3.78125 -9.890625 3.898438 -9.554688 4.140625 -9.265625 C 4.378906 -8.972656 4.8125 -8.671875 5.4375 -8.359375 C 6.039062 -8.640625 6.460938 -8.925781 6.703125 -9.21875 C 6.941406 -9.519531 7.0625 -9.867188 7.0625 -10.265625 C 7.0625 -10.691406 6.90625 -11.023438 6.59375 -11.265625 C 6.289062 -11.515625 5.898438 -11.640625 5.421875 -11.640625 Z M 5.421875 -11.640625 "/></g></g></g><g fill="#000000" fill-opacity="1"><g transform="translate(748.066375, 316.521362)"><g><path d="M 7.84375 0 L 4.984375 0 L 4.984375 -7.84375 L 5.015625 -9.140625 L 5.0625 -10.546875 C 4.582031 -10.066406 4.25 -9.753906 4.0625 -9.609375 L 2.5 -8.359375 L 1.125 -10.078125 L 5.5 -13.5625 L 7.84375 -13.5625 Z M 7.84375 0 "/></g></g></g><g fill="#000000" fill-opacity="1"><g transform="translate(758.909365, 316.521362)"><g><path d="M 10.1875 -7.78125 C 10.1875 -5.101562 9.625 -3.101562 8.5 -1.78125 C 7.375 -0.46875 5.671875 0.1875 3.390625 0.1875 C 2.585938 0.1875 1.976562 0.144531 1.5625 0.0625 L 1.5625 -2.25 C 2.082031 -2.113281 2.625 -2.046875 3.1875 -2.046875 C 4.144531 -2.046875 4.929688 -2.1875 5.546875 -2.46875 C 6.171875 -2.75 6.644531 -3.191406 6.96875 -3.796875 C 7.300781 -4.398438 7.492188 -5.234375 7.546875 -6.296875 L 7.4375 -6.296875 C 7.070312 -5.710938 6.65625 -5.300781 6.1875 -5.0625 C 5.71875 -4.832031 5.128906 -4.71875 4.421875 -4.71875 C 3.242188 -4.71875 2.3125 -5.09375 1.625 -5.84375 C 0.945312 -6.601562 0.609375 -7.660156 0.609375 -9.015625 C 0.609375 -10.460938 1.019531 -11.609375 1.84375 -12.453125 C 2.675781 -13.296875 3.800781 -13.71875 5.21875 -13.71875 C 6.21875 -13.71875 7.09375 -13.484375 7.84375 -13.015625 C 8.601562 -12.546875 9.179688 -11.863281 9.578125 -10.96875 C 9.984375 -10.070312 10.1875 -9.007812 10.1875 -7.78125 Z M 5.28125 -11.421875 C 4.6875 -11.421875 4.222656 -11.21875 3.890625 -10.8125 C 3.554688 -10.40625 3.390625 -9.816406 3.390625 -9.046875 C 3.390625 -8.390625 3.539062 -7.867188 3.84375 -7.484375 C 4.144531 -7.097656 4.601562 -6.90625 5.21875 -6.90625 C 5.800781 -6.90625 6.300781 -7.09375 6.71875 -7.46875 C 7.132812 -7.851562 7.34375 -8.296875 7.34375 -8.796875 C 7.34375 -9.535156 7.144531 -10.15625 6.75 -10.65625 C 6.363281 -11.164062 5.875 -11.421875 5.28125 -11.421875 Z M 5.28125 -11.421875 "/></g></g></g><g fill="#000000" fill-opacity="1"><g transform="translate(825.896283, 316.521362)"><g><path d="M 10.25 0 L 0.765625 0 L 0.765625 -2 L 4.171875 -5.4375 C 5.171875 -6.46875 5.828125 -7.179688 6.140625 -7.578125 C 6.453125 -7.984375 6.675781 -8.351562 6.8125 -8.6875 C 6.945312 -9.03125 7.015625 -9.382812 7.015625 -9.75 C 7.015625 -10.289062 6.863281 -10.691406 6.5625 -10.953125 C 6.257812 -11.222656 5.859375 -11.359375 5.359375 -11.359375 C 4.835938 -11.359375 4.328125 -11.238281 3.828125 -11 C 3.335938 -10.757812 2.820312 -10.414062 2.28125 -9.96875 L 0.71875 -11.8125 C 1.382812 -12.382812 1.9375 -12.785156 2.375 -13.015625 C 2.820312 -13.253906 3.304688 -13.4375 3.828125 -13.5625 C 4.347656 -13.695312 4.925781 -13.765625 5.5625 -13.765625 C 6.414062 -13.765625 7.164062 -13.609375 7.8125 -13.296875 C 8.457031 -12.984375 8.957031 -12.546875 9.3125 -11.984375 C 9.675781 -11.429688 9.859375 -10.796875 9.859375 -10.078125 C 9.859375 -9.453125 9.75 -8.863281 9.53125 -8.3125 C 9.3125 -7.769531 8.972656 -7.210938 8.515625 -6.640625 C 8.054688 -6.066406 7.242188 -5.25 6.078125 -4.1875 L 4.328125 -2.546875 L 4.328125 -2.40625 L 10.25 -2.40625 Z M 10.25 0 "/></g></g></g><g fill="#000000" fill-opacity="1"><g transform="translate(836.739273, 316.521362)"><g><path d="M 10.171875 -6.78125 C 10.171875 -4.414062 9.78125 -2.660156 9 -1.515625 C 8.226562 -0.378906 7.035156 0.1875 5.421875 0.1875 C 3.859375 0.1875 2.675781 -0.398438 1.875 -1.578125 C 1.082031 -2.753906 0.6875 -4.488281 0.6875 -6.78125 C 0.6875 -9.175781 1.070312 -10.941406 1.84375 -12.078125 C 2.613281 -13.210938 3.804688 -13.78125 5.421875 -13.78125 C 6.984375 -13.78125 8.164062 -13.1875 8.96875 -12 C 9.769531 -10.8125 10.171875 -9.070312 10.171875 -6.78125 Z M 3.53125 -6.78125 C 3.53125 -5.113281 3.671875 -3.921875 3.953125 -3.203125 C 4.242188 -2.484375 4.734375 -2.125 5.421875 -2.125 C 6.085938 -2.125 6.566406 -2.488281 6.859375 -3.21875 C 7.160156 -3.945312 7.3125 -5.132812 7.3125 -6.78125 C 7.3125 -8.445312 7.160156 -9.640625 6.859375 -10.359375 C 6.554688 -11.085938 6.078125 -11.453125 5.421875 -11.453125 C 4.742188 -11.453125 4.257812 -11.085938 3.96875 -10.359375 C 3.675781 -9.640625 3.53125 -8.445312 3.53125 -6.78125 Z M 3.53125 -6.78125 "/></g></g></g><g fill="#000000" fill-opacity="1"><g transform="translate(592.406751, 381.021358)"><g><path d="M 10.25 0 L 0.765625 0 L 0.765625 -2 L 4.171875 -5.4375 C 5.171875 -6.46875 5.828125 -7.179688 6.140625 -7.578125 C 6.453125 -7.984375 6.675781 -8.351562 6.8125 -8.6875 C 6.945312 -9.03125 7.015625 -9.382812 7.015625 -9.75 C 7.015625 -10.289062 6.863281 -10.691406 6.5625 -10.953125 C 6.257812 -11.222656 5.859375 -11.359375 5.359375 -11.359375 C 4.835938 -11.359375 4.328125 -11.238281 3.828125 -11 C 3.335938 -10.757812 2.820312 -10.414062 2.28125 -9.96875 L 0.71875 -11.8125 C 1.382812 -12.382812 1.9375 -12.785156 2.375 -13.015625 C 2.820312 -13.253906 3.304688 -13.4375 3.828125 -13.5625 C 4.347656 -13.695312 4.925781 -13.765625 5.5625 -13.765625 C 6.414062 -13.765625 7.164062 -13.609375 7.8125 -13.296875 C 8.457031 -12.984375 8.957031 -12.546875 9.3125 -11.984375 C 9.675781 -11.429688 9.859375 -10.796875 9.859375 -10.078125 C 9.859375 -9.453125 9.75 -8.863281 9.53125 -8.3125 C 9.3125 -7.769531 8.972656 -7.210938 8.515625 -6.640625 C 8.054688 -6.066406 7.242188 -5.25 6.078125 -4.1875 L 4.328125 -2.546875 L 4.328125 -2.40625 L 10.25 -2.40625 Z M 10.25 0 "/></g></g></g><g fill="#000000" fill-opacity="1"><g transform="translate(603.249741, 381.021358)"><g><path d="M 7.84375 0 L 4.984375 0 L 4.984375 -7.84375 L 5.015625 -9.140625 L 5.0625 -10.546875 C 4.582031 -10.066406 4.25 -9.753906 4.0625 -9.609375 L 2.5 -8.359375 L 1.125 -10.078125 L 5.5 -13.5625 L 7.84375 -13.5625 Z M 7.84375 0 "/></g></g></g><g fill="#000000" fill-opacity="1"><g transform="translate(670.236587, 381.021358)"><g><path d="M 10.25 0 L 0.765625 0 L 0.765625 -2 L 4.171875 -5.4375 C 5.171875 -6.46875 5.828125 -7.179688 6.140625 -7.578125 C 6.453125 -7.984375 6.675781 -8.351562 6.8125 -8.6875 C 6.945312 -9.03125 7.015625 -9.382812 7.015625 -9.75 C 7.015625 -10.289062 6.863281 -10.691406 6.5625 -10.953125 C 6.257812 -11.222656 5.859375 -11.359375 5.359375 -11.359375 C 4.835938 -11.359375 4.328125 -11.238281 3.828125 -11 C 3.335938 -10.757812 2.820312 -10.414062 2.28125 -9.96875 L 0.71875 -11.8125 C 1.382812 -12.382812 1.9375 -12.785156 2.375 -13.015625 C 2.820312 -13.253906 3.304688 -13.4375 3.828125 -13.5625 C 4.347656 -13.695312 4.925781 -13.765625 5.5625 -13.765625 C 6.414062 -13.765625 7.164062 -13.609375 7.8125 -13.296875 C 8.457031 -12.984375 8.957031 -12.546875 9.3125 -11.984375 C 9.675781 -11.429688 9.859375 -10.796875 9.859375 -10.078125 C 9.859375 -9.453125 9.75 -8.863281 9.53125 -8.3125 C 9.3125 -7.769531 8.972656 -7.210938 8.515625 -6.640625 C 8.054688 -6.066406 7.242188 -5.25 6.078125 -4.1875 L 4.328125 -2.546875 L 4.328125 -2.40625 L 10.25 -2.40625 Z M 10.25 0 "/></g></g></g><g fill="#000000" fill-opacity="1"><g transform="translate(681.079577, 381.021358)"><g><path d="M 10.25 0 L 0.765625 0 L 0.765625 -2 L 4.171875 -5.4375 C 5.171875 -6.46875 5.828125 -7.179688 6.140625 -7.578125 C 6.453125 -7.984375 6.675781 -8.351562 6.8125 -8.6875 C 6.945312 -9.03125 7.015625 -9.382812 7.015625 -9.75 C 7.015625 -10.289062 6.863281 -10.691406 6.5625 -10.953125 C 6.257812 -11.222656 5.859375 -11.359375 5.359375 -11.359375 C 4.835938 -11.359375 4.328125 -11.238281 3.828125 -11 C 3.335938 -10.757812 2.820312 -10.414062 2.28125 -9.96875 L 0.71875 -11.8125 C 1.382812 -12.382812 1.9375 -12.785156 2.375 -13.015625 C 2.820312 -13.253906 3.304688 -13.4375 3.828125 -13.5625 C 4.347656 -13.695312 4.925781 -13.765625 5.5625 -13.765625 C 6.414062 -13.765625 7.164062 -13.609375 7.8125 -13.296875 C 8.457031 -12.984375 8.957031 -12.546875 9.3125 -11.984375 C 9.675781 -11.429688 9.859375 -10.796875 9.859375 -10.078125 C 9.859375 -9.453125 9.75 -8.863281 9.53125 -8.3125 C 9.3125 -7.769531 8.972656 -7.210938 8.515625 -6.640625 C 8.054688 -6.066406 7.242188 -5.25 6.078125 -4.1875 L 4.328125 -2.546875 L 4.328125 -2.40625 L 10.25 -2.40625 Z M 10.25 0 "/></g></g></g><g fill="#000000" fill-opacity="1"><g transform="translate(748.066375, 381.021358)"><g><path d="M 10.25 0 L 0.765625 0 L 0.765625 -2 L 4.171875 -5.4375 C 5.171875 -6.46875 5.828125 -7.179688 6.140625 -7.578125 C 6.453125 -7.984375 6.675781 -8.351562 6.8125 -8.6875 C 6.945312 -9.03125 7.015625 -9.382812 7.015625 -9.75 C 7.015625 -10.289062 6.863281 -10.691406 6.5625 -10.953125 C 6.257812 -11.222656 5.859375 -11.359375 5.359375 -11.359375 C 4.835938 -11.359375 4.328125 -11.238281 3.828125 -11 C 3.335938 -10.757812 2.820312 -10.414062 2.28125 -9.96875 L 0.71875 -11.8125 C 1.382812 -12.382812 1.9375 -12.785156 2.375 -13.015625 C 2.820312 -13.253906 3.304688 -13.4375 3.828125 -13.5625 C 4.347656 -13.695312 4.925781 -13.765625 5.5625 -13.765625 C 6.414062 -13.765625 7.164062 -13.609375 7.8125 -13.296875 C 8.457031 -12.984375 8.957031 -12.546875 9.3125 -11.984375 C 9.675781 -11.429688 9.859375 -10.796875 9.859375 -10.078125 C 9.859375 -9.453125 9.75 -8.863281 9.53125 -8.3125 C 9.3125 -7.769531 8.972656 -7.210938 8.515625 -6.640625 C 8.054688 -6.066406 7.242188 -5.25 6.078125 -4.1875 L 4.328125 -2.546875 L 4.328125 -2.40625 L 10.25 -2.40625 Z M 10.25 0 "/></g></g></g><g fill="#000000" fill-opacity="1"><g transform="translate(758.909365, 381.021358)"><g><path d="M 9.71875 -10.53125 C 9.71875 -9.6875 9.457031 -8.96875 8.9375 -8.375 C 8.425781 -7.78125 7.707031 -7.367188 6.78125 -7.140625 L 6.78125 -7.09375 C 7.875 -6.957031 8.703125 -6.625 9.265625 -6.09375 C 9.828125 -5.5625 10.109375 -4.847656 10.109375 -3.953125 C 10.109375 -2.648438 9.632812 -1.632812 8.6875 -0.90625 C 7.75 -0.175781 6.398438 0.1875 4.640625 0.1875 C 3.171875 0.1875 1.863281 -0.0546875 0.71875 -0.546875 L 0.71875 -2.984375 C 1.25 -2.722656 1.828125 -2.507812 2.453125 -2.34375 C 3.085938 -2.175781 3.710938 -2.09375 4.328125 -2.09375 C 5.273438 -2.09375 5.972656 -2.25 6.421875 -2.5625 C 6.878906 -2.882812 7.109375 -3.40625 7.109375 -4.125 C 7.109375 -4.757812 6.847656 -5.207031 6.328125 -5.46875 C 5.804688 -5.738281 4.976562 -5.875 3.84375 -5.875 L 2.8125 -5.875 L 2.8125 -8.078125 L 3.859375 -8.078125 C 4.910156 -8.078125 5.675781 -8.210938 6.15625 -8.484375 C 6.644531 -8.753906 6.890625 -9.226562 6.890625 -9.90625 C 6.890625 -10.925781 6.25 -11.4375 4.96875 -11.4375 C 4.519531 -11.4375 4.0625 -11.363281 3.59375 -11.21875 C 3.132812 -11.070312 2.625 -10.816406 2.0625 -10.453125 L 0.75 -12.421875 C 1.976562 -13.316406 3.453125 -13.765625 5.171875 -13.765625 C 6.578125 -13.765625 7.6875 -13.476562 8.5 -12.90625 C 9.3125 -12.332031 9.71875 -11.539062 9.71875 -10.53125 Z M 9.71875 -10.53125 "/></g></g></g><g fill="#000000" fill-opacity="1"><g transform="translate(825.896283, 381.021358)"><g><path d="M 10.25 0 L 0.765625 0 L 0.765625 -2 L 4.171875 -5.4375 C 5.171875 -6.46875 5.828125 -7.179688 6.140625 -7.578125 C 6.453125 -7.984375 6.675781 -8.351562 6.8125 -8.6875 C 6.945312 -9.03125 7.015625 -9.382812 7.015625 -9.75 C 7.015625 -10.289062 6.863281 -10.691406 6.5625 -10.953125 C 6.257812 -11.222656 5.859375 -11.359375 5.359375 -11.359375 C 4.835938 -11.359375 4.328125 -11.238281 3.828125 -11 C 3.335938 -10.757812 2.820312 -10.414062 2.28125 -9.96875 L 0.71875 -11.8125 C 1.382812 -12.382812 1.9375 -12.785156 2.375 -13.015625 C 2.820312 -13.253906 3.304688 -13.4375 3.828125 -13.5625 C 4.347656 -13.695312 4.925781 -13.765625 5.5625 -13.765625 C 6.414062 -13.765625 7.164062 -13.609375 7.8125 -13.296875 C 8.457031 -12.984375 8.957031 -12.546875 9.3125 -11.984375 C 9.675781 -11.429688 9.859375 -10.796875 9.859375 -10.078125 C 9.859375 -9.453125 9.75 -8.863281 9.53125 -8.3125 C 9.3125 -7.769531 8.972656 -7.210938 8.515625 -6.640625 C 8.054688 -6.066406 7.242188 -5.25 6.078125 -4.1875 L 4.328125 -2.546875 L 4.328125 -2.40625 L 10.25 -2.40625 Z M 10.25 0 "/></g></g></g><g fill="#000000" fill-opacity="1"><g transform="translate(836.739273, 381.021358)"><g><path d="M 10.546875 -2.8125 L 8.921875 -2.8125 L 8.921875 0 L 6.109375 0 L 6.109375 -2.8125 L 0.328125 -2.8125 L 0.328125 -4.8125 L 6.265625 -13.5625 L 8.921875 -13.5625 L 8.921875 -5.03125 L 10.546875 -5.03125 Z M 6.109375 -5.03125 L 6.109375 -7.34375 C 6.109375 -7.71875 6.125 -8.269531 6.15625 -9 C 6.1875 -9.738281 6.210938 -10.164062 6.234375 -10.28125 L 6.15625 -10.28125 C 5.925781 -9.769531 5.648438 -9.273438 5.328125 -8.796875 L 2.84375 -5.03125 Z M 6.109375 -5.03125 "/></g></g></g><g fill="#000000" fill-opacity="1"><g transform="translate(592.406751, 445.521358)"><g><path d="M 10.25 0 L 0.765625 0 L 0.765625 -2 L 4.171875 -5.4375 C 5.171875 -6.46875 5.828125 -7.179688 6.140625 -7.578125 C 6.453125 -7.984375 6.675781 -8.351562 6.8125 -8.6875 C 6.945312 -9.03125 7.015625 -9.382812 7.015625 -9.75 C 7.015625 -10.289062 6.863281 -10.691406 6.5625 -10.953125 C 6.257812 -11.222656 5.859375 -11.359375 5.359375 -11.359375 C 4.835938 -11.359375 4.328125 -11.238281 3.828125 -11 C 3.335938 -10.757812 2.820312 -10.414062 2.28125 -9.96875 L 0.71875 -11.8125 C 1.382812 -12.382812 1.9375 -12.785156 2.375 -13.015625 C 2.820312 -13.253906 3.304688 -13.4375 3.828125 -13.5625 C 4.347656 -13.695312 4.925781 -13.765625 5.5625 -13.765625 C 6.414062 -13.765625 7.164062 -13.609375 7.8125 -13.296875 C 8.457031 -12.984375 8.957031 -12.546875 9.3125 -11.984375 C 9.675781 -11.429688 9.859375 -10.796875 9.859375 -10.078125 C 9.859375 -9.453125 9.75 -8.863281 9.53125 -8.3125 C 9.3125 -7.769531 8.972656 -7.210938 8.515625 -6.640625 C 8.054688 -6.066406 7.242188 -5.25 6.078125 -4.1875 L 4.328125 -2.546875 L 4.328125 -2.40625 L 10.25 -2.40625 Z M 10.25 0 "/></g></g></g><g fill="#000000" fill-opacity="1"><g transform="translate(603.249741, 445.521358)"><g><path d="M 5.703125 -8.671875 C 7.003906 -8.671875 8.039062 -8.300781 8.8125 -7.5625 C 9.59375 -6.820312 9.984375 -5.8125 9.984375 -4.53125 C 9.984375 -3.019531 9.515625 -1.851562 8.578125 -1.03125 C 7.648438 -0.21875 6.316406 0.1875 4.578125 0.1875 C 3.066406 0.1875 1.847656 -0.0546875 0.921875 -0.546875 L 0.921875 -3.03125 C 1.410156 -2.769531 1.976562 -2.554688 2.625 -2.390625 C 3.28125 -2.222656 3.898438 -2.140625 4.484375 -2.140625 C 6.234375 -2.140625 7.109375 -2.859375 7.109375 -4.296875 C 7.109375 -5.660156 6.203125 -6.34375 4.390625 -6.34375 C 4.054688 -6.34375 3.691406 -6.3125 3.296875 -6.25 C 2.898438 -6.1875 2.582031 -6.117188 2.34375 -6.046875 L 1.203125 -6.65625 L 1.703125 -13.5625 L 9.0625 -13.5625 L 9.0625 -11.140625 L 4.21875 -11.140625 L 3.96875 -8.46875 L 4.296875 -8.53125 C 4.671875 -8.625 5.140625 -8.671875 5.703125 -8.671875 Z M 5.703125 -8.671875 "/></g></g></g><g fill="#000000" fill-opacity="1"><g transform="translate(670.236587, 445.521334)"><g><path d="M 10.25 0 L 0.765625 0 L 0.765625 -2 L 4.171875 -5.4375 C 5.171875 -6.46875 5.828125 -7.179688 6.140625 -7.578125 C 6.453125 -7.984375 6.675781 -8.351562 6.8125 -8.6875 C 6.945312 -9.03125 7.015625 -9.382812 7.015625 -9.75 C 7.015625 -10.289062 6.863281 -10.691406 6.5625 -10.953125 C 6.257812 -11.222656 5.859375 -11.359375 5.359375 -11.359375 C 4.835938 -11.359375 4.328125 -11.238281 3.828125 -11 C 3.335938 -10.757812 2.820312 -10.414062 2.28125 -9.96875 L 0.71875 -11.8125 C 1.382812 -12.382812 1.9375 -12.785156 2.375 -13.015625 C 2.820312 -13.253906 3.304688 -13.4375 3.828125 -13.5625 C 4.347656 -13.695312 4.925781 -13.765625 5.5625 -13.765625 C 6.414062 -13.765625 7.164062 -13.609375 7.8125 -13.296875 C 8.457031 -12.984375 8.957031 -12.546875 9.3125 -11.984375 C 9.675781 -11.429688 9.859375 -10.796875 9.859375 -10.078125 C 9.859375 -9.453125 9.75 -8.863281 9.53125 -8.3125 C 9.3125 -7.769531 8.972656 -7.210938 8.515625 -6.640625 C 8.054688 -6.066406 7.242188 -5.25 6.078125 -4.1875 L 4.328125 -2.546875 L 4.328125 -2.40625 L 10.25 -2.40625 Z M 10.25 0 "/></g></g></g><g fill="#000000" fill-opacity="1"><g transform="translate(681.079577, 445.521334)"><g><path d="M 0.671875 -5.765625 C 0.671875 -8.441406 1.238281 -10.4375 2.375 -11.75 C 3.507812 -13.0625 5.207031 -13.71875 7.46875 -13.71875 C 8.238281 -13.71875 8.84375 -13.671875 9.28125 -13.578125 L 9.28125 -11.296875 C 8.738281 -11.410156 8.195312 -11.46875 7.65625 -11.46875 C 6.664062 -11.46875 5.859375 -11.316406 5.234375 -11.015625 C 4.617188 -10.722656 4.15625 -10.285156 3.84375 -9.703125 C 3.539062 -9.128906 3.359375 -8.304688 3.296875 -7.234375 L 3.421875 -7.234375 C 4.035156 -8.285156 5.015625 -8.8125 6.359375 -8.8125 C 7.578125 -8.8125 8.53125 -8.429688 9.21875 -7.671875 C 9.90625 -6.910156 10.25 -5.859375 10.25 -4.515625 C 10.25 -3.066406 9.835938 -1.921875 9.015625 -1.078125 C 8.203125 -0.234375 7.070312 0.1875 5.625 0.1875 C 4.625 0.1875 3.75 -0.0390625 3 -0.5 C 2.257812 -0.96875 1.6875 -1.644531 1.28125 -2.53125 C 0.875 -3.425781 0.671875 -4.503906 0.671875 -5.765625 Z M 5.5625 -2.109375 C 6.175781 -2.109375 6.644531 -2.3125 6.96875 -2.71875 C 7.300781 -3.132812 7.46875 -3.722656 7.46875 -4.484375 C 7.46875 -5.140625 7.3125 -5.65625 7 -6.03125 C 6.695312 -6.414062 6.238281 -6.609375 5.625 -6.609375 C 5.039062 -6.609375 4.539062 -6.421875 4.125 -6.046875 C 3.71875 -5.671875 3.515625 -5.234375 3.515625 -4.734375 C 3.515625 -3.992188 3.707031 -3.367188 4.09375 -2.859375 C 4.476562 -2.359375 4.96875 -2.109375 5.5625 -2.109375 Z M 5.5625 -2.109375 "/></g></g></g><g fill="#000000" fill-opacity="1"><g transform="translate(748.066375, 445.521334)"><g><path d="M 10.25 0 L 0.765625 0 L 0.765625 -2 L 4.171875 -5.4375 C 5.171875 -6.46875 5.828125 -7.179688 6.140625 -7.578125 C 6.453125 -7.984375 6.675781 -8.351562 6.8125 -8.6875 C 6.945312 -9.03125 7.015625 -9.382812 7.015625 -9.75 C 7.015625 -10.289062 6.863281 -10.691406 6.5625 -10.953125 C 6.257812 -11.222656 5.859375 -11.359375 5.359375 -11.359375 C 4.835938 -11.359375 4.328125 -11.238281 3.828125 -11 C 3.335938 -10.757812 2.820312 -10.414062 2.28125 -9.96875 L 0.71875 -11.8125 C 1.382812 -12.382812 1.9375 -12.785156 2.375 -13.015625 C 2.820312 -13.253906 3.304688 -13.4375 3.828125 -13.5625 C 4.347656 -13.695312 4.925781 -13.765625 5.5625 -13.765625 C 6.414062 -13.765625 7.164062 -13.609375 7.8125 -13.296875 C 8.457031 -12.984375 8.957031 -12.546875 9.3125 -11.984375 C 9.675781 -11.429688 9.859375 -10.796875 9.859375 -10.078125 C 9.859375 -9.453125 9.75 -8.863281 9.53125 -8.3125 C 9.3125 -7.769531 8.972656 -7.210938 8.515625 -6.640625 C 8.054688 -6.066406 7.242188 -5.25 6.078125 -4.1875 L 4.328125 -2.546875 L 4.328125 -2.40625 L 10.25 -2.40625 Z M 10.25 0 "/></g></g></g><g fill="#000000" fill-opacity="1"><g transform="translate(758.909365, 445.521334)"><g><path d="M 2.109375 0 L 7.203125 -11.140625 L 0.515625 -11.140625 L 0.515625 -13.546875 L 10.25 -13.546875 L 10.25 -11.75 L 5.109375 0 Z M 2.109375 0 "/></g></g></g><g fill="#000000" fill-opacity="1"><g transform="translate(825.896283, 445.521334)"><g><path d="M 10.25 0 L 0.765625 0 L 0.765625 -2 L 4.171875 -5.4375 C 5.171875 -6.46875 5.828125 -7.179688 6.140625 -7.578125 C 6.453125 -7.984375 6.675781 -8.351562 6.8125 -8.6875 C 6.945312 -9.03125 7.015625 -9.382812 7.015625 -9.75 C 7.015625 -10.289062 6.863281 -10.691406 6.5625 -10.953125 C 6.257812 -11.222656 5.859375 -11.359375 5.359375 -11.359375 C 4.835938 -11.359375 4.328125 -11.238281 3.828125 -11 C 3.335938 -10.757812 2.820312 -10.414062 2.28125 -9.96875 L 0.71875 -11.8125 C 1.382812 -12.382812 1.9375 -12.785156 2.375 -13.015625 C 2.820312 -13.253906 3.304688 -13.4375 3.828125 -13.5625 C 4.347656 -13.695312 4.925781 -13.765625 5.5625 -13.765625 C 6.414062 -13.765625 7.164062 -13.609375 7.8125 -13.296875 C 8.457031 -12.984375 8.957031 -12.546875 9.3125 -11.984375 C 9.675781 -11.429688 9.859375 -10.796875 9.859375 -10.078125 C 9.859375 -9.453125 9.75 -8.863281 9.53125 -8.3125 C 9.3125 -7.769531 8.972656 -7.210938 8.515625 -6.640625 C 8.054688 -6.066406 7.242188 -5.25 6.078125 -4.1875 L 4.328125 -2.546875 L 4.328125 -2.40625 L 10.25 -2.40625 Z M 10.25 0 "/></g></g></g><g fill="#000000" fill-opacity="1"><g transform="translate(836.739273, 445.521334)"><g><path d="M 5.4375 -13.734375 C 6.738281 -13.734375 7.785156 -13.4375 8.578125 -12.84375 C 9.367188 -12.257812 9.765625 -11.46875 9.765625 -10.46875 C 9.765625 -9.769531 9.570312 -9.148438 9.1875 -8.609375 C 8.8125 -8.066406 8.195312 -7.582031 7.34375 -7.15625 C 8.351562 -6.613281 9.078125 -6.046875 9.515625 -5.453125 C 9.960938 -4.867188 10.1875 -4.222656 10.1875 -3.515625 C 10.1875 -2.398438 9.75 -1.503906 8.875 -0.828125 C 8.007812 -0.148438 6.863281 0.1875 5.4375 0.1875 C 3.945312 0.1875 2.78125 -0.125 1.9375 -0.75 C 1.09375 -1.382812 0.671875 -2.28125 0.671875 -3.4375 C 0.671875 -4.21875 0.875 -4.90625 1.28125 -5.5 C 1.695312 -6.101562 2.359375 -6.632812 3.265625 -7.09375 C 2.492188 -7.582031 1.9375 -8.101562 1.59375 -8.65625 C 1.25 -9.207031 1.078125 -9.816406 1.078125 -10.484375 C 1.078125 -11.453125 1.476562 -12.234375 2.28125 -12.828125 C 3.09375 -13.429688 4.144531 -13.734375 5.4375 -13.734375 Z M 3.328125 -3.609375 C 3.328125 -3.078125 3.507812 -2.660156 3.875 -2.359375 C 4.25 -2.066406 4.757812 -1.921875 5.40625 -1.921875 C 6.113281 -1.921875 6.644531 -2.070312 7 -2.375 C 7.351562 -2.6875 7.53125 -3.09375 7.53125 -3.59375 C 7.53125 -4.007812 7.351562 -4.394531 7 -4.75 C 6.644531 -5.113281 6.078125 -5.5 5.296875 -5.90625 C 3.984375 -5.300781 3.328125 -4.535156 3.328125 -3.609375 Z M 5.421875 -11.640625 C 4.929688 -11.640625 4.535156 -11.515625 4.234375 -11.265625 C 3.929688 -11.015625 3.78125 -10.679688 3.78125 -10.265625 C 3.78125 -9.890625 3.898438 -9.554688 4.140625 -9.265625 C 4.378906 -8.972656 4.8125 -8.671875 5.4375 -8.359375 C 6.039062 -8.640625 6.460938 -8.925781 6.703125 -9.21875 C 6.941406 -9.519531 7.0625 -9.867188 7.0625 -10.265625 C 7.0625 -10.691406 6.90625 -11.023438 6.59375 -11.265625 C 6.289062 -11.515625 5.898438 -11.640625 5.421875 -11.640625 Z M 5.421875 -11.640625 "/></g></g></g><g clip-path="url(#72ab14cfa4)"><path fill="#000000" d="M 564.339844 21.019531 L 564.339844 469.519531 M 642.171875 21.019531 L 642.171875 469.519531 M 720 21.019531 L 720 469.519531 M 797.828125 21.019531 L 797.828125 469.519531 M 875.660156 21.019531 L 875.660156 469.519531 M 562.839844 19.519531 L 877.160156 19.519531 M 562.839844 84.019531 L 877.160156 84.019531 M 562.839844 148.519531 L 877.160156 148.519531 M 562.839844 213.019531 L 877.160156 213.019531 M 562.839844 277.519531 L 877.160156 277.519531 M 562.839844 342.019531 L 877.160156 342.019531 M 562.839844 406.519531 L 877.160156 406.519531 M 562.839844 471.019531 L 877.160156 471.019531 " fill-opacity="1" fill-rule="nonzero"/></g><g clip-path="url(#da45917115)"><path stroke-linecap="butt" transform="matrix(0.75, 0, 0, 0.75, 562.840346, 18.021367)" fill="none" stroke-linejoin="miter" d="M 1.999331 3.997552 L 1.999331 601.997582 M 105.775377 3.997552 L 105.775377 601.997582 M 209.546216 3.997552 L 209.546216 601.997582 M 313.317055 3.997552 L 313.317055 601.997582 M 417.093101 3.997552 L 417.093101 601.997582 M -0.000669542 1.997552 L 419.093102 1.997552 M -0.000669542 87.997556 L 419.093102 87.997556 M -0.000669542 173.997561 L 419.093102 173.997561 M -0.000669542 259.997565 L 419.093102 259.997565 M -0.000669542 345.997569 L 419.093102 345.997569 M -0.000669542 431.997574 L 419.093102 431.997574 M -0.000669542 517.997578 L 419.093102 517.997578 M -0.000669542 603.997582 L 419.093102 603.997582 " stroke="#000000" stroke-width="4" stroke-opacity="1" stroke-miterlimit="4"/></g><g fill="#000000" fill-opacity="1"><g transform="translate(42.375303, 680.710066)"><g><path d="M 7.84375 0 L 4.984375 0 L 4.984375 -7.84375 L 5.015625 -9.140625 L 5.0625 -10.546875 C 4.582031 -10.066406 4.25 -9.753906 4.0625 -9.609375 L 2.5 -8.359375 L 1.125 -10.078125 L 5.5 -13.5625 L 7.84375 -13.5625 Z M 7.84375 0 "/></g></g></g><g fill="#000000" fill-opacity="1"><g transform="translate(91.979013, 680.710066)"><g><path d="M 10.25 0 L 0.765625 0 L 0.765625 -2 L 4.171875 -5.4375 C 5.171875 -6.46875 5.828125 -7.179688 6.140625 -7.578125 C 6.453125 -7.984375 6.675781 -8.351562 6.8125 -8.6875 C 6.945312 -9.03125 7.015625 -9.382812 7.015625 -9.75 C 7.015625 -10.289062 6.863281 -10.691406 6.5625 -10.953125 C 6.257812 -11.222656 5.859375 -11.359375 5.359375 -11.359375 C 4.835938 -11.359375 4.328125 -11.238281 3.828125 -11 C 3.335938 -10.757812 2.820312 -10.414062 2.28125 -9.96875 L 0.71875 -11.8125 C 1.382812 -12.382812 1.9375 -12.785156 2.375 -13.015625 C 2.820312 -13.253906 3.304688 -13.4375 3.828125 -13.5625 C 4.347656 -13.695312 4.925781 -13.765625 5.5625 -13.765625 C 6.414062 -13.765625 7.164062 -13.609375 7.8125 -13.296875 C 8.457031 -12.984375 8.957031 -12.546875 9.3125 -11.984375 C 9.675781 -11.429688 9.859375 -10.796875 9.859375 -10.078125 C 9.859375 -9.453125 9.75 -8.863281 9.53125 -8.3125 C 9.3125 -7.769531 8.972656 -7.210938 8.515625 -6.640625 C 8.054688 -6.066406 7.242188 -5.25 6.078125 -4.1875 L 4.328125 -2.546875 L 4.328125 -2.40625 L 10.25 -2.40625 Z M 10.25 0 "/></g></g></g><g fill="#000000" fill-opacity="1"><g transform="translate(141.582714, 680.710066)"><g><path d="M 9.71875 -10.53125 C 9.71875 -9.6875 9.457031 -8.96875 8.9375 -8.375 C 8.425781 -7.78125 7.707031 -7.367188 6.78125 -7.140625 L 6.78125 -7.09375 C 7.875 -6.957031 8.703125 -6.625 9.265625 -6.09375 C 9.828125 -5.5625 10.109375 -4.847656 10.109375 -3.953125 C 10.109375 -2.648438 9.632812 -1.632812 8.6875 -0.90625 C 7.75 -0.175781 6.398438 0.1875 4.640625 0.1875 C 3.171875 0.1875 1.863281 -0.0546875 0.71875 -0.546875 L 0.71875 -2.984375 C 1.25 -2.722656 1.828125 -2.507812 2.453125 -2.34375 C 3.085938 -2.175781 3.710938 -2.09375 4.328125 -2.09375 C 5.273438 -2.09375 5.972656 -2.25 6.421875 -2.5625 C 6.878906 -2.882812 7.109375 -3.40625 7.109375 -4.125 C 7.109375 -4.757812 6.847656 -5.207031 6.328125 -5.46875 C 5.804688 -5.738281 4.976562 -5.875 3.84375 -5.875 L 2.8125 -5.875 L 2.8125 -8.078125 L 3.859375 -8.078125 C 4.910156 -8.078125 5.675781 -8.210938 6.15625 -8.484375 C 6.644531 -8.753906 6.890625 -9.226562 6.890625 -9.90625 C 6.890625 -10.925781 6.25 -11.4375 4.96875 -11.4375 C 4.519531 -11.4375 4.0625 -11.363281 3.59375 -11.21875 C 3.132812 -11.070312 2.625 -10.816406 2.0625 -10.453125 L 0.75 -12.421875 C 1.976562 -13.316406 3.453125 -13.765625 5.171875 -13.765625 C 6.578125 -13.765625 7.6875 -13.476562 8.5 -12.90625 C 9.3125 -12.332031 9.71875 -11.539062 9.71875 -10.53125 Z M 9.71875 -10.53125 "/></g></g></g><g fill="#000000" fill-opacity="1"><g transform="translate(191.186423, 680.710066)"><g><path d="M 10.546875 -2.8125 L 8.921875 -2.8125 L 8.921875 0 L 6.109375 0 L 6.109375 -2.8125 L 0.328125 -2.8125 L 0.328125 -4.8125 L 6.265625 -13.5625 L 8.921875 -13.5625 L 8.921875 -5.03125 L 10.546875 -5.03125 Z M 6.109375 -5.03125 L 6.109375 -7.34375 C 6.109375 -7.71875 6.125 -8.269531 6.15625 -9 C 6.1875 -9.738281 6.210938 -10.164062 6.234375 -10.28125 L 6.15625 -10.28125 C 5.925781 -9.769531 5.648438 -9.273438 5.328125 -8.796875 L 2.84375 -5.03125 Z M 6.109375 -5.03125 "/></g></g></g><g fill="#000000" fill-opacity="1"><g transform="translate(240.790146, 680.710066)"><g><path d="M 5.703125 -8.671875 C 7.003906 -8.671875 8.039062 -8.300781 8.8125 -7.5625 C 9.59375 -6.820312 9.984375 -5.8125 9.984375 -4.53125 C 9.984375 -3.019531 9.515625 -1.851562 8.578125 -1.03125 C 7.648438 -0.21875 6.316406 0.1875 4.578125 0.1875 C 3.066406 0.1875 1.847656 -0.0546875 0.921875 -0.546875 L 0.921875 -3.03125 C 1.410156 -2.769531 1.976562 -2.554688 2.625 -2.390625 C 3.28125 -2.222656 3.898438 -2.140625 4.484375 -2.140625 C 6.234375 -2.140625 7.109375 -2.859375 7.109375 -4.296875 C 7.109375 -5.660156 6.203125 -6.34375 4.390625 -6.34375 C 4.054688 -6.34375 3.691406 -6.3125 3.296875 -6.25 C 2.898438 -6.1875 2.582031 -6.117188 2.34375 -6.046875 L 1.203125 -6.65625 L 1.703125 -13.5625 L 9.0625 -13.5625 L 9.0625 -11.140625 L 4.21875 -11.140625 L 3.96875 -8.46875 L 4.296875 -8.53125 C 4.671875 -8.625 5.140625 -8.671875 5.703125 -8.671875 Z M 5.703125 -8.671875 "/></g></g></g><g fill="#000000" fill-opacity="1"><g transform="translate(290.393838, 680.710066)"><g><path d="M 0.671875 -5.765625 C 0.671875 -8.441406 1.238281 -10.4375 2.375 -11.75 C 3.507812 -13.0625 5.207031 -13.71875 7.46875 -13.71875 C 8.238281 -13.71875 8.84375 -13.671875 9.28125 -13.578125 L 9.28125 -11.296875 C 8.738281 -11.410156 8.195312 -11.46875 7.65625 -11.46875 C 6.664062 -11.46875 5.859375 -11.316406 5.234375 -11.015625 C 4.617188 -10.722656 4.15625 -10.285156 3.84375 -9.703125 C 3.539062 -9.128906 3.359375 -8.304688 3.296875 -7.234375 L 3.421875 -7.234375 C 4.035156 -8.285156 5.015625 -8.8125 6.359375 -8.8125 C 7.578125 -8.8125 8.53125 -8.429688 9.21875 -7.671875 C 9.90625 -6.910156 10.25 -5.859375 10.25 -4.515625 C 10.25 -3.066406 9.835938 -1.921875 9.015625 -1.078125 C 8.203125 -0.234375 7.070312 0.1875 5.625 0.1875 C 4.625 0.1875 3.75 -0.0390625 3 -0.5 C 2.257812 -0.96875 1.6875 -1.644531 1.28125 -2.53125 C 0.875 -3.425781 0.671875 -4.503906 0.671875 -5.765625 Z M 5.5625 -2.109375 C 6.175781 -2.109375 6.644531 -2.3125 6.96875 -2.71875 C 7.300781 -3.132812 7.46875 -3.722656 7.46875 -4.484375 C 7.46875 -5.140625 7.3125 -5.65625 7 -6.03125 C 6.695312 -6.414062 6.238281 -6.609375 5.625 -6.609375 C 5.039062 -6.609375 4.539062 -6.421875 4.125 -6.046875 C 3.71875 -5.671875 3.515625 -5.234375 3.515625 -4.734375 C 3.515625 -3.992188 3.707031 -3.367188 4.09375 -2.859375 C 4.476562 -2.359375 4.96875 -2.109375 5.5625 -2.109375 Z M 5.5625 -2.109375 "/></g></g></g><g fill="#000000" fill-opacity="1"><g transform="translate(339.997547, 680.710066)"><g><path d="M 2.109375 0 L 7.203125 -11.140625 L 0.515625 -11.140625 L 0.515625 -13.546875 L 10.25 -13.546875 L 10.25 -11.75 L 5.109375 0 Z M 2.109375 0 "/></g></g></g><g fill="#000000" fill-opacity="1"><g transform="translate(389.601256, 680.710066)"><g><path d="M 5.4375 -13.734375 C 6.738281 -13.734375 7.785156 -13.4375 8.578125 -12.84375 C 9.367188 -12.257812 9.765625 -11.46875 9.765625 -10.46875 C 9.765625 -9.769531 9.570312 -9.148438 9.1875 -8.609375 C 8.8125 -8.066406 8.195312 -7.582031 7.34375 -7.15625 C 8.351562 -6.613281 9.078125 -6.046875 9.515625 -5.453125 C 9.960938 -4.867188 10.1875 -4.222656 10.1875 -3.515625 C 10.1875 -2.398438 9.75 -1.503906 8.875 -0.828125 C 8.007812 -0.148438 6.863281 0.1875 5.4375 0.1875 C 3.945312 0.1875 2.78125 -0.125 1.9375 -0.75 C 1.09375 -1.382812 0.671875 -2.28125 0.671875 -3.4375 C 0.671875 -4.21875 0.875 -4.90625 1.28125 -5.5 C 1.695312 -6.101562 2.359375 -6.632812 3.265625 -7.09375 C 2.492188 -7.582031 1.9375 -8.101562 1.59375 -8.65625 C 1.25 -9.207031 1.078125 -9.816406 1.078125 -10.484375 C 1.078125 -11.453125 1.476562 -12.234375 2.28125 -12.828125 C 3.09375 -13.429688 4.144531 -13.734375 5.4375 -13.734375 Z M 3.328125 -3.609375 C 3.328125 -3.078125 3.507812 -2.660156 3.875 -2.359375 C 4.25 -2.066406 4.757812 -1.921875 5.40625 -1.921875 C 6.113281 -1.921875 6.644531 -2.070312 7 -2.375 C 7.351562 -2.6875 7.53125 -3.09375 7.53125 -3.59375 C 7.53125 -4.007812 7.351562 -4.394531 7 -4.75 C 6.644531 -5.113281 6.078125 -5.5 5.296875 -5.90625 C 3.984375 -5.300781 3.328125 -4.535156 3.328125 -3.609375 Z M 5.421875 -11.640625 C 4.929688 -11.640625 4.535156 -11.515625 4.234375 -11.265625 C 3.929688 -11.015625 3.78125 -10.679688 3.78125 -10.265625 C 3.78125 -9.890625 3.898438 -9.554688 4.140625 -9.265625 C 4.378906 -8.972656 4.8125 -8.671875 5.4375 -8.359375 C 6.039062 -8.640625 6.460938 -8.925781 6.703125 -9.21875 C 6.941406 -9.519531 7.0625 -9.867188 7.0625 -10.265625 C 7.0625 -10.691406 6.90625 -11.023438 6.59375 -11.265625 C 6.289062 -11.515625 5.898438 -11.640625 5.421875 -11.640625 Z M 5.421875 -11.640625 "/></g></g></g><g fill="#000000" fill-opacity="1"><g transform="translate(439.204974, 680.710066)"><g><path d="M 10.1875 -7.78125 C 10.1875 -5.101562 9.625 -3.101562 8.5 -1.78125 C 7.375 -0.46875 5.671875 0.1875 3.390625 0.1875 C 2.585938 0.1875 1.976562 0.144531 1.5625 0.0625 L 1.5625 -2.25 C 2.082031 -2.113281 2.625 -2.046875 3.1875 -2.046875 C 4.144531 -2.046875 4.929688 -2.1875 5.546875 -2.46875 C 6.171875 -2.75 6.644531 -3.191406 6.96875 -3.796875 C 7.300781 -4.398438 7.492188 -5.234375 7.546875 -6.296875 L 7.4375 -6.296875 C 7.070312 -5.710938 6.65625 -5.300781 6.1875 -5.0625 C 5.71875 -4.832031 5.128906 -4.71875 4.421875 -4.71875 C 3.242188 -4.71875 2.3125 -5.09375 1.625 -5.84375 C 0.945312 -6.601562 0.609375 -7.660156 0.609375 -9.015625 C 0.609375 -10.460938 1.019531 -11.609375 1.84375 -12.453125 C 2.675781 -13.296875 3.800781 -13.71875 5.21875 -13.71875 C 6.21875 -13.71875 7.09375 -13.484375 7.84375 -13.015625 C 8.601562 -12.546875 9.179688 -11.863281 9.578125 -10.96875 C 9.984375 -10.070312 10.1875 -9.007812 10.1875 -7.78125 Z M 5.28125 -11.421875 C 4.6875 -11.421875 4.222656 -11.21875 3.890625 -10.8125 C 3.554688 -10.40625 3.390625 -9.816406 3.390625 -9.046875 C 3.390625 -8.390625 3.539062 -7.867188 3.84375 -7.484375 C 4.144531 -7.097656 4.601562 -6.90625 5.21875 -6.90625 C 5.800781 -6.90625 6.300781 -7.09375 6.71875 -7.46875 C 7.132812 -7.851562 7.34375 -8.296875 7.34375 -8.796875 C 7.34375 -9.535156 7.144531 -10.15625 6.75 -10.65625 C 6.363281 -11.164062 5.875 -11.421875 5.28125 -11.421875 Z M 5.28125 -11.421875 "/></g></g></g><g fill="#000000" fill-opacity="1"><g transform="translate(483.38287, 680.710066)"><g><path d="M 7.84375 0 L 4.984375 0 L 4.984375 -7.84375 L 5.015625 -9.140625 L 5.0625 -10.546875 C 4.582031 -10.066406 4.25 -9.753906 4.0625 -9.609375 L 2.5 -8.359375 L 1.125 -10.078125 L 5.5 -13.5625 L 7.84375 -13.5625 Z M 7.84375 0 "/></g></g></g><g fill="#000000" fill-opacity="1"><g transform="translate(494.225861, 680.710066)"><g><path d="M 10.171875 -6.78125 C 10.171875 -4.414062 9.78125 -2.660156 9 -1.515625 C 8.226562 -0.378906 7.035156 0.1875 5.421875 0.1875 C 3.859375 0.1875 2.675781 -0.398438 1.875 -1.578125 C 1.082031 -2.753906 0.6875 -4.488281 0.6875 -6.78125 C 0.6875 -9.175781 1.070312 -10.941406 1.84375 -12.078125 C 2.613281 -13.210938 3.804688 -13.78125 5.421875 -13.78125 C 6.984375 -13.78125 8.164062 -13.1875 8.96875 -12 C 9.769531 -10.8125 10.171875 -9.070312 10.171875 -6.78125 Z M 3.53125 -6.78125 C 3.53125 -5.113281 3.671875 -3.921875 3.953125 -3.203125 C 4.242188 -2.484375 4.734375 -2.125 5.421875 -2.125 C 6.085938 -2.125 6.566406 -2.488281 6.859375 -3.21875 C 7.160156 -3.945312 7.3125 -5.132812 7.3125 -6.78125 C 7.3125 -8.445312 7.160156 -9.640625 6.859375 -10.359375 C 6.554688 -11.085938 6.078125 -11.453125 5.421875 -11.453125 C 4.742188 -11.453125 4.257812 -11.085938 3.96875 -10.359375 C 3.675781 -9.640625 3.53125 -8.445312 3.53125 -6.78125 Z M 3.53125 -6.78125 "/></g></g></g><g fill="#000000" fill-opacity="1"><g transform="translate(532.986596, 680.710066)"><g><path d="M 7.84375 0 L 4.984375 0 L 4.984375 -7.84375 L 5.015625 -9.140625 L 5.0625 -10.546875 C 4.582031 -10.066406 4.25 -9.753906 4.0625 -9.609375 L 2.5 -8.359375 L 1.125 -10.078125 L 5.5 -13.5625 L 7.84375 -13.5625 Z M 7.84375 0 "/></g></g></g><g fill="#000000" fill-opacity="1"><g transform="translate(543.829586, 680.710066)"><g><path d="M 7.84375 0 L 4.984375 0 L 4.984375 -7.84375 L 5.015625 -9.140625 L 5.0625 -10.546875 C 4.582031 -10.066406 4.25 -9.753906 4.0625 -9.609375 L 2.5 -8.359375 L 1.125 -10.078125 L 5.5 -13.5625 L 7.84375 -13.5625 Z M 7.84375 0 "/></g></g></g><g fill="#000000" fill-opacity="1"><g transform="translate(582.590297, 680.710066)"><g><path d="M 7.84375 0 L 4.984375 0 L 4.984375 -7.84375 L 5.015625 -9.140625 L 5.0625 -10.546875 C 4.582031 -10.066406 4.25 -9.753906 4.0625 -9.609375 L 2.5 -8.359375 L 1.125 -10.078125 L 5.5 -13.5625 L 7.84375 -13.5625 Z M 7.84375 0 "/></g></g></g><g fill="#000000" fill-opacity="1"><g transform="translate(593.433288, 680.710066)"><g><path d="M 10.25 0 L 0.765625 0 L 0.765625 -2 L 4.171875 -5.4375 C 5.171875 -6.46875 5.828125 -7.179688 6.140625 -7.578125 C 6.453125 -7.984375 6.675781 -8.351562 6.8125 -8.6875 C 6.945312 -9.03125 7.015625 -9.382812 7.015625 -9.75 C 7.015625 -10.289062 6.863281 -10.691406 6.5625 -10.953125 C 6.257812 -11.222656 5.859375 -11.359375 5.359375 -11.359375 C 4.835938 -11.359375 4.328125 -11.238281 3.828125 -11 C 3.335938 -10.757812 2.820312 -10.414062 2.28125 -9.96875 L 0.71875 -11.8125 C 1.382812 -12.382812 1.9375 -12.785156 2.375 -13.015625 C 2.820312 -13.253906 3.304688 -13.4375 3.828125 -13.5625 C 4.347656 -13.695312 4.925781 -13.765625 5.5625 -13.765625 C 6.414062 -13.765625 7.164062 -13.609375 7.8125 -13.296875 C 8.457031 -12.984375 8.957031 -12.546875 9.3125 -11.984375 C 9.675781 -11.429688 9.859375 -10.796875 9.859375 -10.078125 C 9.859375 -9.453125 9.75 -8.863281 9.53125 -8.3125 C 9.3125 -7.769531 8.972656 -7.210938 8.515625 -6.640625 C 8.054688 -6.066406 7.242188 -5.25 6.078125 -4.1875 L 4.328125 -2.546875 L 4.328125 -2.40625 L 10.25 -2.40625 Z M 10.25 0 "/></g></g></g><g fill="#000000" fill-opacity="1"><g transform="translate(632.194023, 680.710066)"><g><path d="M 7.84375 0 L 4.984375 0 L 4.984375 -7.84375 L 5.015625 -9.140625 L 5.0625 -10.546875 C 4.582031 -10.066406 4.25 -9.753906 4.0625 -9.609375 L 2.5 -8.359375 L 1.125 -10.078125 L 5.5 -13.5625 L 7.84375 -13.5625 Z M 7.84375 0 "/></g></g></g><g fill="#000000" fill-opacity="1"><g transform="translate(643.037013, 680.710066)"><g><path d="M 9.71875 -10.53125 C 9.71875 -9.6875 9.457031 -8.96875 8.9375 -8.375 C 8.425781 -7.78125 7.707031 -7.367188 6.78125 -7.140625 L 6.78125 -7.09375 C 7.875 -6.957031 8.703125 -6.625 9.265625 -6.09375 C 9.828125 -5.5625 10.109375 -4.847656 10.109375 -3.953125 C 10.109375 -2.648438 9.632812 -1.632812 8.6875 -0.90625 C 7.75 -0.175781 6.398438 0.1875 4.640625 0.1875 C 3.171875 0.1875 1.863281 -0.0546875 0.71875 -0.546875 L 0.71875 -2.984375 C 1.25 -2.722656 1.828125 -2.507812 2.453125 -2.34375 C 3.085938 -2.175781 3.710938 -2.09375 4.328125 -2.09375 C 5.273438 -2.09375 5.972656 -2.25 6.421875 -2.5625 C 6.878906 -2.882812 7.109375 -3.40625 7.109375 -4.125 C 7.109375 -4.757812 6.847656 -5.207031 6.328125 -5.46875 C 5.804688 -5.738281 4.976562 -5.875 3.84375 -5.875 L 2.8125 -5.875 L 2.8125 -8.078125 L 3.859375 -8.078125 C 4.910156 -8.078125 5.675781 -8.210938 6.15625 -8.484375 C 6.644531 -8.753906 6.890625 -9.226562 6.890625 -9.90625 C 6.890625 -10.925781 6.25 -11.4375 4.96875 -11.4375 C 4.519531 -11.4375 4.0625 -11.363281 3.59375 -11.21875 C 3.132812 -11.070312 2.625 -10.816406 2.0625 -10.453125 L 0.75 -12.421875 C 1.976562 -13.316406 3.453125 -13.765625 5.171875 -13.765625 C 6.578125 -13.765625 7.6875 -13.476562 8.5 -12.90625 C 9.3125 -12.332031 9.71875 -11.539062 9.71875 -10.53125 Z M 9.71875 -10.53125 "/></g></g></g><g fill="#000000" fill-opacity="1"><g transform="translate(681.797724, 680.710066)"><g><path d="M 7.84375 0 L 4.984375 0 L 4.984375 -7.84375 L 5.015625 -9.140625 L 5.0625 -10.546875 C 4.582031 -10.066406 4.25 -9.753906 4.0625 -9.609375 L 2.5 -8.359375 L 1.125 -10.078125 L 5.5 -13.5625 L 7.84375 -13.5625 Z M 7.84375 0 "/></g></g></g><g fill="#000000" fill-opacity="1"><g transform="translate(692.640715, 680.710066)"><g><path d="M 10.546875 -2.8125 L 8.921875 -2.8125 L 8.921875 0 L 6.109375 0 L 6.109375 -2.8125 L 0.328125 -2.8125 L 0.328125 -4.8125 L 6.265625 -13.5625 L 8.921875 -13.5625 L 8.921875 -5.03125 L 10.546875 -5.03125 Z M 6.109375 -5.03125 L 6.109375 -7.34375 C 6.109375 -7.71875 6.125 -8.269531 6.15625 -9 C 6.1875 -9.738281 6.210938 -10.164062 6.234375 -10.28125 L 6.15625 -10.28125 C 5.925781 -9.769531 5.648438 -9.273438 5.328125 -8.796875 L 2.84375 -5.03125 Z M 6.109375 -5.03125 "/></g></g></g><g fill="#000000" fill-opacity="1"><g transform="translate(731.401378, 680.710066)"><g><path d="M 7.84375 0 L 4.984375 0 L 4.984375 -7.84375 L 5.015625 -9.140625 L 5.0625 -10.546875 C 4.582031 -10.066406 4.25 -9.753906 4.0625 -9.609375 L 2.5 -8.359375 L 1.125 -10.078125 L 5.5 -13.5625 L 7.84375 -13.5625 Z M 7.84375 0 "/></g></g></g><g fill="#000000" fill-opacity="1"><g transform="translate(742.244368, 680.710066)"><g><path d="M 5.703125 -8.671875 C 7.003906 -8.671875 8.039062 -8.300781 8.8125 -7.5625 C 9.59375 -6.820312 9.984375 -5.8125 9.984375 -4.53125 C 9.984375 -3.019531 9.515625 -1.851562 8.578125 -1.03125 C 7.648438 -0.21875 6.316406 0.1875 4.578125 0.1875 C 3.066406 0.1875 1.847656 -0.0546875 0.921875 -0.546875 L 0.921875 -3.03125 C 1.410156 -2.769531 1.976562 -2.554688 2.625 -2.390625 C 3.28125 -2.222656 3.898438 -2.140625 4.484375 -2.140625 C 6.234375 -2.140625 7.109375 -2.859375 7.109375 -4.296875 C 7.109375 -5.660156 6.203125 -6.34375 4.390625 -6.34375 C 4.054688 -6.34375 3.691406 -6.3125 3.296875 -6.25 C 2.898438 -6.1875 2.582031 -6.117188 2.34375 -6.046875 L 1.203125 -6.65625 L 1.703125 -13.5625 L 9.0625 -13.5625 L 9.0625 -11.140625 L 4.21875 -11.140625 L 3.96875 -8.46875 L 4.296875 -8.53125 C 4.671875 -8.625 5.140625 -8.671875 5.703125 -8.671875 Z M 5.703125 -8.671875 "/></g></g></g><g fill="#000000" fill-opacity="1"><g transform="translate(781.005151, 680.710066)"><g><path d="M 7.84375 0 L 4.984375 0 L 4.984375 -7.84375 L 5.015625 -9.140625 L 5.0625 -10.546875 C 4.582031 -10.066406 4.25 -9.753906 4.0625 -9.609375 L 2.5 -8.359375 L 1.125 -10.078125 L 5.5 -13.5625 L 7.84375 -13.5625 Z M 7.84375 0 "/></g></g></g><g fill="#000000" fill-opacity="1"><g transform="translate(791.848142, 680.710066)"><g><path d="M 0.671875 -5.765625 C 0.671875 -8.441406 1.238281 -10.4375 2.375 -11.75 C 3.507812 -13.0625 5.207031 -13.71875 7.46875 -13.71875 C 8.238281 -13.71875 8.84375 -13.671875 9.28125 -13.578125 L 9.28125 -11.296875 C 8.738281 -11.410156 8.195312 -11.46875 7.65625 -11.46875 C 6.664062 -11.46875 5.859375 -11.316406 5.234375 -11.015625 C 4.617188 -10.722656 4.15625 -10.285156 3.84375 -9.703125 C 3.539062 -9.128906 3.359375 -8.304688 3.296875 -7.234375 L 3.421875 -7.234375 C 4.035156 -8.285156 5.015625 -8.8125 6.359375 -8.8125 C 7.578125 -8.8125 8.53125 -8.429688 9.21875 -7.671875 C 9.90625 -6.910156 10.25 -5.859375 10.25 -4.515625 C 10.25 -3.066406 9.835938 -1.921875 9.015625 -1.078125 C 8.203125 -0.234375 7.070312 0.1875 5.625 0.1875 C 4.625 0.1875 3.75 -0.0390625 3 -0.5 C 2.257812 -0.96875 1.6875 -1.644531 1.28125 -2.53125 C 0.875 -3.425781 0.671875 -4.503906 0.671875 -5.765625 Z M 5.5625 -2.109375 C 6.175781 -2.109375 6.644531 -2.3125 6.96875 -2.71875 C 7.300781 -3.132812 7.46875 -3.722656 7.46875 -4.484375 C 7.46875 -5.140625 7.3125 -5.65625 7 -6.03125 C 6.695312 -6.414062 6.238281 -6.609375 5.625 -6.609375 C 5.039062 -6.609375 4.539062 -6.421875 4.125 -6.046875 C 3.71875 -5.671875 3.515625 -5.234375 3.515625 -4.734375 C 3.515625 -3.992188 3.707031 -3.367188 4.09375 -2.859375 C 4.476562 -2.359375 4.96875 -2.109375 5.5625 -2.109375 Z M 5.5625 -2.109375 "/></g></g></g><g fill="#000000" fill-opacity="1"><g transform="translate(830.608853, 680.710066)"><g><path d="M 7.84375 0 L 4.984375 0 L 4.984375 -7.84375 L 5.015625 -9.140625 L 5.0625 -10.546875 C 4.582031 -10.066406 4.25 -9.753906 4.0625 -9.609375 L 2.5 -8.359375 L 1.125 -10.078125 L 5.5 -13.5625 L 7.84375 -13.5625 Z M 7.84375 0 "/></g></g></g><g fill="#000000" fill-opacity="1"><g transform="translate(841.451843, 680.710066)"><g><path d="M 2.109375 0 L 7.203125 -11.140625 L 0.515625 -11.140625 L 0.515625 -13.546875 L 10.25 -13.546875 L 10.25 -11.75 L 5.109375 0 Z M 2.109375 0 "/></g></g></g><g fill="#000000" fill-opacity="1"><g transform="translate(880.212554, 680.710066)"><g><path d="M 7.84375 0 L 4.984375 0 L 4.984375 -7.84375 L 5.015625 -9.140625 L 5.0625 -10.546875 C 4.582031 -10.066406 4.25 -9.753906 4.0625 -9.609375 L 2.5 -8.359375 L 1.125 -10.078125 L 5.5 -13.5625 L 7.84375 -13.5625 Z M 7.84375 0 "/></g></g></g><g fill="#000000" fill-opacity="1"><g transform="translate(891.055545, 680.710066)"><g><path d="M 5.4375 -13.734375 C 6.738281 -13.734375 7.785156 -13.4375 8.578125 -12.84375 C 9.367188 -12.257812 9.765625 -11.46875 9.765625 -10.46875 C 9.765625 -9.769531 9.570312 -9.148438 9.1875 -8.609375 C 8.8125 -8.066406 8.195312 -7.582031 7.34375 -7.15625 C 8.351562 -6.613281 9.078125 -6.046875 9.515625 -5.453125 C 9.960938 -4.867188 10.1875 -4.222656 10.1875 -3.515625 C 10.1875 -2.398438 9.75 -1.503906 8.875 -0.828125 C 8.007812 -0.148438 6.863281 0.1875 5.4375 0.1875 C 3.945312 0.1875 2.78125 -0.125 1.9375 -0.75 C 1.09375 -1.382812 0.671875 -2.28125 0.671875 -3.4375 C 0.671875 -4.21875 0.875 -4.90625 1.28125 -5.5 C 1.695312 -6.101562 2.359375 -6.632812 3.265625 -7.09375 C 2.492188 -7.582031 1.9375 -8.101562 1.59375 -8.65625 C 1.25 -9.207031 1.078125 -9.816406 1.078125 -10.484375 C 1.078125 -11.453125 1.476562 -12.234375 2.28125 -12.828125 C 3.09375 -13.429688 4.144531 -13.734375 5.4375 -13.734375 Z M 3.328125 -3.609375 C 3.328125 -3.078125 3.507812 -2.660156 3.875 -2.359375 C 4.25 -2.066406 4.757812 -1.921875 5.40625 -1.921875 C 6.113281 -1.921875 6.644531 -2.070312 7 -2.375 C 7.351562 -2.6875 7.53125 -3.09375 7.53125 -3.59375 C 7.53125 -4.007812 7.351562 -4.394531 7 -4.75 C 6.644531 -5.113281 6.078125 -5.5 5.296875 -5.90625 C 3.984375 -5.300781 3.328125 -4.535156 3.328125 -3.609375 Z M 5.421875 -11.640625 C 4.929688 -11.640625 4.535156 -11.515625 4.234375 -11.265625 C 3.929688 -11.015625 3.78125 -10.679688 3.78125 -10.265625 C 3.78125 -9.890625 3.898438 -9.554688 4.140625 -9.265625 C 4.378906 -8.972656 4.8125 -8.671875 5.4375 -8.359375 C 6.039062 -8.640625 6.460938 -8.925781 6.703125 -9.21875 C 6.941406 -9.519531 7.0625 -9.867188 7.0625 -10.265625 C 7.0625 -10.691406 6.90625 -11.023438 6.59375 -11.265625 C 6.289062 -11.515625 5.898438 -11.640625 5.421875 -11.640625 Z M 5.421875 -11.640625 "/></g></g></g><g fill="#000000" fill-opacity="1"><g transform="translate(929.816208, 680.710066)"><g><path d="M 7.84375 0 L 4.984375 0 L 4.984375 -7.84375 L 5.015625 -9.140625 L 5.0625 -10.546875 C 4.582031 -10.066406 4.25 -9.753906 4.0625 -9.609375 L 2.5 -8.359375 L 1.125 -10.078125 L 5.5 -13.5625 L 7.84375 -13.5625 Z M 7.84375 0 "/></g></g></g><g fill="#000000" fill-opacity="1"><g transform="translate(940.659198, 680.710066)"><g><path d="M 10.1875 -7.78125 C 10.1875 -5.101562 9.625 -3.101562 8.5 -1.78125 C 7.375 -0.46875 5.671875 0.1875 3.390625 0.1875 C 2.585938 0.1875 1.976562 0.144531 1.5625 0.0625 L 1.5625 -2.25 C 2.082031 -2.113281 2.625 -2.046875 3.1875 -2.046875 C 4.144531 -2.046875 4.929688 -2.1875 5.546875 -2.46875 C 6.171875 -2.75 6.644531 -3.191406 6.96875 -3.796875 C 7.300781 -4.398438 7.492188 -5.234375 7.546875 -6.296875 L 7.4375 -6.296875 C 7.070312 -5.710938 6.65625 -5.300781 6.1875 -5.0625 C 5.71875 -4.832031 5.128906 -4.71875 4.421875 -4.71875 C 3.242188 -4.71875 2.3125 -5.09375 1.625 -5.84375 C 0.945312 -6.601562 0.609375 -7.660156 0.609375 -9.015625 C 0.609375 -10.460938 1.019531 -11.609375 1.84375 -12.453125 C 2.675781 -13.296875 3.800781 -13.71875 5.21875 -13.71875 C 6.21875 -13.71875 7.09375 -13.484375 7.84375 -13.015625 C 8.601562 -12.546875 9.179688 -11.863281 9.578125 -10.96875 C 9.984375 -10.070312 10.1875 -9.007812 10.1875 -7.78125 Z M 5.28125 -11.421875 C 4.6875 -11.421875 4.222656 -11.21875 3.890625 -10.8125 C 3.554688 -10.40625 3.390625 -9.816406 3.390625 -9.046875 C 3.390625 -8.390625 3.539062 -7.867188 3.84375 -7.484375 C 4.144531 -7.097656 4.601562 -6.90625 5.21875 -6.90625 C 5.800781 -6.90625 6.300781 -7.09375 6.71875 -7.46875 C 7.132812 -7.851562 7.34375 -8.296875 7.34375 -8.796875 C 7.34375 -9.535156 7.144531 -10.15625 6.75 -10.65625 C 6.363281 -11.164062 5.875 -11.421875 5.28125 -11.421875 Z M 5.28125 -11.421875 "/></g></g></g><g fill="#000000" fill-opacity="1"><g transform="translate(979.419909, 680.710066)"><g><path d="M 10.25 0 L 0.765625 0 L 0.765625 -2 L 4.171875 -5.4375 C 5.171875 -6.46875 5.828125 -7.179688 6.140625 -7.578125 C 6.453125 -7.984375 6.675781 -8.351562 6.8125 -8.6875 C 6.945312 -9.03125 7.015625 -9.382812 7.015625 -9.75 C 7.015625 -10.289062 6.863281 -10.691406 6.5625 -10.953125 C 6.257812 -11.222656 5.859375 -11.359375 5.359375 -11.359375 C 4.835938 -11.359375 4.328125 -11.238281 3.828125 -11 C 3.335938 -10.757812 2.820312 -10.414062 2.28125 -9.96875 L 0.71875 -11.8125 C 1.382812 -12.382812 1.9375 -12.785156 2.375 -13.015625 C 2.820312 -13.253906 3.304688 -13.4375 3.828125 -13.5625 C 4.347656 -13.695312 4.925781 -13.765625 5.5625 -13.765625 C 6.414062 -13.765625 7.164062 -13.609375 7.8125 -13.296875 C 8.457031 -12.984375 8.957031 -12.546875 9.3125 -11.984375 C 9.675781 -11.429688 9.859375 -10.796875 9.859375 -10.078125 C 9.859375 -9.453125 9.75 -8.863281 9.53125 -8.3125 C 9.3125 -7.769531 8.972656 -7.210938 8.515625 -6.640625 C 8.054688 -6.066406 7.242188 -5.25 6.078125 -4.1875 L 4.328125 -2.546875 L 4.328125 -2.40625 L 10.25 -2.40625 Z M 10.25 0 "/></g></g></g><g fill="#000000" fill-opacity="1"><g transform="translate(990.2629, 680.710066)"><g><path d="M 10.171875 -6.78125 C 10.171875 -4.414062 9.78125 -2.660156 9 -1.515625 C 8.226562 -0.378906 7.035156 0.1875 5.421875 0.1875 C 3.859375 0.1875 2.675781 -0.398438 1.875 -1.578125 C 1.082031 -2.753906 0.6875 -4.488281 0.6875 -6.78125 C 0.6875 -9.175781 1.070312 -10.941406 1.84375 -12.078125 C 2.613281 -13.210938 3.804688 -13.78125 5.421875 -13.78125 C 6.984375 -13.78125 8.164062 -13.1875 8.96875 -12 C 9.769531 -10.8125 10.171875 -9.070312 10.171875 -6.78125 Z M 3.53125 -6.78125 C 3.53125 -5.113281 3.671875 -3.921875 3.953125 -3.203125 C 4.242188 -2.484375 4.734375 -2.125 5.421875 -2.125 C 6.085938 -2.125 6.566406 -2.488281 6.859375 -3.21875 C 7.160156 -3.945312 7.3125 -5.132812 7.3125 -6.78125 C 7.3125 -8.445312 7.160156 -9.640625 6.859375 -10.359375 C 6.554688 -11.085938 6.078125 -11.453125 5.421875 -11.453125 C 4.742188 -11.453125 4.257812 -11.085938 3.96875 -10.359375 C 3.675781 -9.640625 3.53125 -8.445312 3.53125 -6.78125 Z M 3.53125 -6.78125 "/></g></g></g><g fill="#000000" fill-opacity="1"><g transform="translate(1029.023635, 680.710066)"><g><path d="M 10.25 0 L 0.765625 0 L 0.765625 -2 L 4.171875 -5.4375 C 5.171875 -6.46875 5.828125 -7.179688 6.140625 -7.578125 C 6.453125 -7.984375 6.675781 -8.351562 6.8125 -8.6875 C 6.945312 -9.03125 7.015625 -9.382812 7.015625 -9.75 C 7.015625 -10.289062 6.863281 -10.691406 6.5625 -10.953125 C 6.257812 -11.222656 5.859375 -11.359375 5.359375 -11.359375 C 4.835938 -11.359375 4.328125 -11.238281 3.828125 -11 C 3.335938 -10.757812 2.820312 -10.414062 2.28125 -9.96875 L 0.71875 -11.8125 C 1.382812 -12.382812 1.9375 -12.785156 2.375 -13.015625 C 2.820312 -13.253906 3.304688 -13.4375 3.828125 -13.5625 C 4.347656 -13.695312 4.925781 -13.765625 5.5625 -13.765625 C 6.414062 -13.765625 7.164062 -13.609375 7.8125 -13.296875 C 8.457031 -12.984375 8.957031 -12.546875 9.3125 -11.984375 C 9.675781 -11.429688 9.859375 -10.796875 9.859375 -10.078125 C 9.859375 -9.453125 9.75 -8.863281 9.53125 -8.3125 C 9.3125 -7.769531 8.972656 -7.210938 8.515625 -6.640625 C 8.054688 -6.066406 7.242188 -5.25 6.078125 -4.1875 L 4.328125 -2.546875 L 4.328125 -2.40625 L 10.25 -2.40625 Z M 10.25 0 "/></g></g></g><g fill="#000000" fill-opacity="1"><g transform="translate(1039.866625, 680.710066)"><g><path d="M 7.84375 0 L 4.984375 0 L 4.984375 -7.84375 L 5.015625 -9.140625 L 5.0625 -10.546875 C 4.582031 -10.066406 4.25 -9.753906 4.0625 -9.609375 L 2.5 -8.359375 L 1.125 -10.078125 L 5.5 -13.5625 L 7.84375 -13.5625 Z M 7.84375 0 "/></g></g></g><g fill="#000000" fill-opacity="1"><g transform="translate(1078.627456, 680.710066)"><g><path d="M 10.25 0 L 0.765625 0 L 0.765625 -2 L 4.171875 -5.4375 C 5.171875 -6.46875 5.828125 -7.179688 6.140625 -7.578125 C 6.453125 -7.984375 6.675781 -8.351562 6.8125 -8.6875 C 6.945312 -9.03125 7.015625 -9.382812 7.015625 -9.75 C 7.015625 -10.289062 6.863281 -10.691406 6.5625 -10.953125 C 6.257812 -11.222656 5.859375 -11.359375 5.359375 -11.359375 C 4.835938 -11.359375 4.328125 -11.238281 3.828125 -11 C 3.335938 -10.757812 2.820312 -10.414062 2.28125 -9.96875 L 0.71875 -11.8125 C 1.382812 -12.382812 1.9375 -12.785156 2.375 -13.015625 C 2.820312 -13.253906 3.304688 -13.4375 3.828125 -13.5625 C 4.347656 -13.695312 4.925781 -13.765625 5.5625 -13.765625 C 6.414062 -13.765625 7.164062 -13.609375 7.8125 -13.296875 C 8.457031 -12.984375 8.957031 -12.546875 9.3125 -11.984375 C 9.675781 -11.429688 9.859375 -10.796875 9.859375 -10.078125 C 9.859375 -9.453125 9.75 -8.863281 9.53125 -8.3125 C 9.3125 -7.769531 8.972656 -7.210938 8.515625 -6.640625 C 8.054688 -6.066406 7.242188 -5.25 6.078125 -4.1875 L 4.328125 -2.546875 L 4.328125 -2.40625 L 10.25 -2.40625 Z M 10.25 0 "/></g></g></g><g fill="#000000" fill-opacity="1"><g transform="translate(1089.470447, 680.710066)"><g><path d="M 10.25 0 L 0.765625 0 L 0.765625 -2 L 4.171875 -5.4375 C 5.171875 -6.46875 5.828125 -7.179688 6.140625 -7.578125 C 6.453125 -7.984375 6.675781 -8.351562 6.8125 -8.6875 C 6.945312 -9.03125 7.015625 -9.382812 7.015625 -9.75 C 7.015625 -10.289062 6.863281 -10.691406 6.5625 -10.953125 C 6.257812 -11.222656 5.859375 -11.359375 5.359375 -11.359375 C 4.835938 -11.359375 4.328125 -11.238281 3.828125 -11 C 3.335938 -10.757812 2.820312 -10.414062 2.28125 -9.96875 L 0.71875 -11.8125 C 1.382812 -12.382812 1.9375 -12.785156 2.375 -13.015625 C 2.820312 -13.253906 3.304688 -13.4375 3.828125 -13.5625 C 4.347656 -13.695312 4.925781 -13.765625 5.5625 -13.765625 C 6.414062 -13.765625 7.164062 -13.609375 7.8125 -13.296875 C 8.457031 -12.984375 8.957031 -12.546875 9.3125 -11.984375 C 9.675781 -11.429688 9.859375 -10.796875 9.859375 -10.078125 C 9.859375 -9.453125 9.75 -8.863281 9.53125 -8.3125 C 9.3125 -7.769531 8.972656 -7.210938 8.515625 -6.640625 C 8.054688 -6.066406 7.242188 -5.25 6.078125 -4.1875 L 4.328125 -2.546875 L 4.328125 -2.40625 L 10.25 -2.40625 Z M 10.25 0 "/></g></g></g><g fill="#000000" fill-opacity="1"><g transform="translate(1128.231158, 680.710066)"><g><path d="M 10.25 0 L 0.765625 0 L 0.765625 -2 L 4.171875 -5.4375 C 5.171875 -6.46875 5.828125 -7.179688 6.140625 -7.578125 C 6.453125 -7.984375 6.675781 -8.351562 6.8125 -8.6875 C 6.945312 -9.03125 7.015625 -9.382812 7.015625 -9.75 C 7.015625 -10.289062 6.863281 -10.691406 6.5625 -10.953125 C 6.257812 -11.222656 5.859375 -11.359375 5.359375 -11.359375 C 4.835938 -11.359375 4.328125 -11.238281 3.828125 -11 C 3.335938 -10.757812 2.820312 -10.414062 2.28125 -9.96875 L 0.71875 -11.8125 C 1.382812 -12.382812 1.9375 -12.785156 2.375 -13.015625 C 2.820312 -13.253906 3.304688 -13.4375 3.828125 -13.5625 C 4.347656 -13.695312 4.925781 -13.765625 5.5625 -13.765625 C 6.414062 -13.765625 7.164062 -13.609375 7.8125 -13.296875 C 8.457031 -12.984375 8.957031 -12.546875 9.3125 -11.984375 C 9.675781 -11.429688 9.859375 -10.796875 9.859375 -10.078125 C 9.859375 -9.453125 9.75 -8.863281 9.53125 -8.3125 C 9.3125 -7.769531 8.972656 -7.210938 8.515625 -6.640625 C 8.054688 -6.066406 7.242188 -5.25 6.078125 -4.1875 L 4.328125 -2.546875 L 4.328125 -2.40625 L 10.25 -2.40625 Z M 10.25 0 "/></g></g></g><g fill="#000000" fill-opacity="1"><g transform="translate(1139.074148, 680.710066)"><g><path d="M 9.71875 -10.53125 C 9.71875 -9.6875 9.457031 -8.96875 8.9375 -8.375 C 8.425781 -7.78125 7.707031 -7.367188 6.78125 -7.140625 L 6.78125 -7.09375 C 7.875 -6.957031 8.703125 -6.625 9.265625 -6.09375 C 9.828125 -5.5625 10.109375 -4.847656 10.109375 -3.953125 C 10.109375 -2.648438 9.632812 -1.632812 8.6875 -0.90625 C 7.75 -0.175781 6.398438 0.1875 4.640625 0.1875 C 3.171875 0.1875 1.863281 -0.0546875 0.71875 -0.546875 L 0.71875 -2.984375 C 1.25 -2.722656 1.828125 -2.507812 2.453125 -2.34375 C 3.085938 -2.175781 3.710938 -2.09375 4.328125 -2.09375 C 5.273438 -2.09375 5.972656 -2.25 6.421875 -2.5625 C 6.878906 -2.882812 7.109375 -3.40625 7.109375 -4.125 C 7.109375 -4.757812 6.847656 -5.207031 6.328125 -5.46875 C 5.804688 -5.738281 4.976562 -5.875 3.84375 -5.875 L 2.8125 -5.875 L 2.8125 -8.078125 L 3.859375 -8.078125 C 4.910156 -8.078125 5.675781 -8.210938 6.15625 -8.484375 C 6.644531 -8.753906 6.890625 -9.226562 6.890625 -9.90625 C 6.890625 -10.925781 6.25 -11.4375 4.96875 -11.4375 C 4.519531 -11.4375 4.0625 -11.363281 3.59375 -11.21875 C 3.132812 -11.070312 2.625 -10.816406 2.0625 -10.453125 L 0.75 -12.421875 C 1.976562 -13.316406 3.453125 -13.765625 5.171875 -13.765625 C 6.578125 -13.765625 7.6875 -13.476562 8.5 -12.90625 C 9.3125 -12.332031 9.71875 -11.539062 9.71875 -10.53125 Z M 9.71875 -10.53125 "/></g></g></g><g fill="#000000" fill-opacity="1"><g transform="translate(1177.834763, 680.710066)"><g><path d="M 10.25 0 L 0.765625 0 L 0.765625 -2 L 4.171875 -5.4375 C 5.171875 -6.46875 5.828125 -7.179688 6.140625 -7.578125 C 6.453125 -7.984375 6.675781 -8.351562 6.8125 -8.6875 C 6.945312 -9.03125 7.015625 -9.382812 7.015625 -9.75 C 7.015625 -10.289062 6.863281 -10.691406 6.5625 -10.953125 C 6.257812 -11.222656 5.859375 -11.359375 5.359375 -11.359375 C 4.835938 -11.359375 4.328125 -11.238281 3.828125 -11 C 3.335938 -10.757812 2.820312 -10.414062 2.28125 -9.96875 L 0.71875 -11.8125 C 1.382812 -12.382812 1.9375 -12.785156 2.375 -13.015625 C 2.820312 -13.253906 3.304688 -13.4375 3.828125 -13.5625 C 4.347656 -13.695312 4.925781 -13.765625 5.5625 -13.765625 C 6.414062 -13.765625 7.164062 -13.609375 7.8125 -13.296875 C 8.457031 -12.984375 8.957031 -12.546875 9.3125 -11.984375 C 9.675781 -11.429688 9.859375 -10.796875 9.859375 -10.078125 C 9.859375 -9.453125 9.75 -8.863281 9.53125 -8.3125 C 9.3125 -7.769531 8.972656 -7.210938 8.515625 -6.640625 C 8.054688 -6.066406 7.242188 -5.25 6.078125 -4.1875 L 4.328125 -2.546875 L 4.328125 -2.40625 L 10.25 -2.40625 Z M 10.25 0 "/></g></g></g><g fill="#000000" fill-opacity="1"><g transform="translate(1188.677754, 680.710066)"><g><path d="M 10.546875 -2.8125 L 8.921875 -2.8125 L 8.921875 0 L 6.109375 0 L 6.109375 -2.8125 L 0.328125 -2.8125 L 0.328125 -4.8125 L 6.265625 -13.5625 L 8.921875 -13.5625 L 8.921875 -5.03125 L 10.546875 -5.03125 Z M 6.109375 -5.03125 L 6.109375 -7.34375 C 6.109375 -7.71875 6.125 -8.269531 6.15625 -9 C 6.1875 -9.738281 6.210938 -10.164062 6.234375 -10.28125 L 6.15625 -10.28125 C 5.925781 -9.769531 5.648438 -9.273438 5.328125 -8.796875 L 2.84375 -5.03125 Z M 6.109375 -5.03125 "/></g></g></g><g fill="#000000" fill-opacity="1"><g transform="translate(1227.438465, 680.710066)"><g><path d="M 10.25 0 L 0.765625 0 L 0.765625 -2 L 4.171875 -5.4375 C 5.171875 -6.46875 5.828125 -7.179688 6.140625 -7.578125 C 6.453125 -7.984375 6.675781 -8.351562 6.8125 -8.6875 C 6.945312 -9.03125 7.015625 -9.382812 7.015625 -9.75 C 7.015625 -10.289062 6.863281 -10.691406 6.5625 -10.953125 C 6.257812 -11.222656 5.859375 -11.359375 5.359375 -11.359375 C 4.835938 -11.359375 4.328125 -11.238281 3.828125 -11 C 3.335938 -10.757812 2.820312 -10.414062 2.28125 -9.96875 L 0.71875 -11.8125 C 1.382812 -12.382812 1.9375 -12.785156 2.375 -13.015625 C 2.820312 -13.253906 3.304688 -13.4375 3.828125 -13.5625 C 4.347656 -13.695312 4.925781 -13.765625 5.5625 -13.765625 C 6.414062 -13.765625 7.164062 -13.609375 7.8125 -13.296875 C 8.457031 -12.984375 8.957031 -12.546875 9.3125 -11.984375 C 9.675781 -11.429688 9.859375 -10.796875 9.859375 -10.078125 C 9.859375 -9.453125 9.75 -8.863281 9.53125 -8.3125 C 9.3125 -7.769531 8.972656 -7.210938 8.515625 -6.640625 C 8.054688 -6.066406 7.242188 -5.25 6.078125 -4.1875 L 4.328125 -2.546875 L 4.328125 -2.40625 L 10.25 -2.40625 Z M 10.25 0 "/></g></g></g><g fill="#000000" fill-opacity="1"><g transform="translate(1238.281455, 680.710066)"><g><path d="M 5.703125 -8.671875 C 7.003906 -8.671875 8.039062 -8.300781 8.8125 -7.5625 C 9.59375 -6.820312 9.984375 -5.8125 9.984375 -4.53125 C 9.984375 -3.019531 9.515625 -1.851562 8.578125 -1.03125 C 7.648438 -0.21875 6.316406 0.1875 4.578125 0.1875 C 3.066406 0.1875 1.847656 -0.0546875 0.921875 -0.546875 L 0.921875 -3.03125 C 1.410156 -2.769531 1.976562 -2.554688 2.625 -2.390625 C 3.28125 -2.222656 3.898438 -2.140625 4.484375 -2.140625 C 6.234375 -2.140625 7.109375 -2.859375 7.109375 -4.296875 C 7.109375 -5.660156 6.203125 -6.34375 4.390625 -6.34375 C 4.054688 -6.34375 3.691406 -6.3125 3.296875 -6.25 C 2.898438 -6.1875 2.582031 -6.117188 2.34375 -6.046875 L 1.203125 -6.65625 L 1.703125 -13.5625 L 9.0625 -13.5625 L 9.0625 -11.140625 L 4.21875 -11.140625 L 3.96875 -8.46875 L 4.296875 -8.53125 C 4.671875 -8.625 5.140625 -8.671875 5.703125 -8.671875 Z M 5.703125 -8.671875 "/></g></g></g><g fill="#000000" fill-opacity="1"><g transform="translate(1277.042166, 680.710066)"><g><path d="M 10.25 0 L 0.765625 0 L 0.765625 -2 L 4.171875 -5.4375 C 5.171875 -6.46875 5.828125 -7.179688 6.140625 -7.578125 C 6.453125 -7.984375 6.675781 -8.351562 6.8125 -8.6875 C 6.945312 -9.03125 7.015625 -9.382812 7.015625 -9.75 C 7.015625 -10.289062 6.863281 -10.691406 6.5625 -10.953125 C 6.257812 -11.222656 5.859375 -11.359375 5.359375 -11.359375 C 4.835938 -11.359375 4.328125 -11.238281 3.828125 -11 C 3.335938 -10.757812 2.820312 -10.414062 2.28125 -9.96875 L 0.71875 -11.8125 C 1.382812 -12.382812 1.9375 -12.785156 2.375 -13.015625 C 2.820312 -13.253906 3.304688 -13.4375 3.828125 -13.5625 C 4.347656 -13.695312 4.925781 -13.765625 5.5625 -13.765625 C 6.414062 -13.765625 7.164062 -13.609375 7.8125 -13.296875 C 8.457031 -12.984375 8.957031 -12.546875 9.3125 -11.984375 C 9.675781 -11.429688 9.859375 -10.796875 9.859375 -10.078125 C 9.859375 -9.453125 9.75 -8.863281 9.53125 -8.3125 C 9.3125 -7.769531 8.972656 -7.210938 8.515625 -6.640625 C 8.054688 -6.066406 7.242188 -5.25 6.078125 -4.1875 L 4.328125 -2.546875 L 4.328125 -2.40625 L 10.25 -2.40625 Z M 10.25 0 "/></g></g></g><g fill="#000000" fill-opacity="1"><g transform="translate(1287.885157, 680.710066)"><g><path d="M 0.671875 -5.765625 C 0.671875 -8.441406 1.238281 -10.4375 2.375 -11.75 C 3.507812 -13.0625 5.207031 -13.71875 7.46875 -13.71875 C 8.238281 -13.71875 8.84375 -13.671875 9.28125 -13.578125 L 9.28125 -11.296875 C 8.738281 -11.410156 8.195312 -11.46875 7.65625 -11.46875 C 6.664062 -11.46875 5.859375 -11.316406 5.234375 -11.015625 C 4.617188 -10.722656 4.15625 -10.285156 3.84375 -9.703125 C 3.539062 -9.128906 3.359375 -8.304688 3.296875 -7.234375 L 3.421875 -7.234375 C 4.035156 -8.285156 5.015625 -8.8125 6.359375 -8.8125 C 7.578125 -8.8125 8.53125 -8.429688 9.21875 -7.671875 C 9.90625 -6.910156 10.25 -5.859375 10.25 -4.515625 C 10.25 -3.066406 9.835938 -1.921875 9.015625 -1.078125 C 8.203125 -0.234375 7.070312 0.1875 5.625 0.1875 C 4.625 0.1875 3.75 -0.0390625 3 -0.5 C 2.257812 -0.96875 1.6875 -1.644531 1.28125 -2.53125 C 0.875 -3.425781 0.671875 -4.503906 0.671875 -5.765625 Z M 5.5625 -2.109375 C 6.175781 -2.109375 6.644531 -2.3125 6.96875 -2.71875 C 7.300781 -3.132812 7.46875 -3.722656 7.46875 -4.484375 C 7.46875 -5.140625 7.3125 -5.65625 7 -6.03125 C 6.695312 -6.414062 6.238281 -6.609375 5.625 -6.609375 C 5.039062 -6.609375 4.539062 -6.421875 4.125 -6.046875 C 3.71875 -5.671875 3.515625 -5.234375 3.515625 -4.734375 C 3.515625 -3.992188 3.707031 -3.367188 4.09375 -2.859375 C 4.476562 -2.359375 4.96875 -2.109375 5.5625 -2.109375 Z M 5.5625 -2.109375 "/></g></g></g><g fill="#000000" fill-opacity="1"><g transform="translate(1326.645868, 680.710066)"><g><path d="M 10.25 0 L 0.765625 0 L 0.765625 -2 L 4.171875 -5.4375 C 5.171875 -6.46875 5.828125 -7.179688 6.140625 -7.578125 C 6.453125 -7.984375 6.675781 -8.351562 6.8125 -8.6875 C 6.945312 -9.03125 7.015625 -9.382812 7.015625 -9.75 C 7.015625 -10.289062 6.863281 -10.691406 6.5625 -10.953125 C 6.257812 -11.222656 5.859375 -11.359375 5.359375 -11.359375 C 4.835938 -11.359375 4.328125 -11.238281 3.828125 -11 C 3.335938 -10.757812 2.820312 -10.414062 2.28125 -9.96875 L 0.71875 -11.8125 C 1.382812 -12.382812 1.9375 -12.785156 2.375 -13.015625 C 2.820312 -13.253906 3.304688 -13.4375 3.828125 -13.5625 C 4.347656 -13.695312 4.925781 -13.765625 5.5625 -13.765625 C 6.414062 -13.765625 7.164062 -13.609375 7.8125 -13.296875 C 8.457031 -12.984375 8.957031 -12.546875 9.3125 -11.984375 C 9.675781 -11.429688 9.859375 -10.796875 9.859375 -10.078125 C 9.859375 -9.453125 9.75 -8.863281 9.53125 -8.3125 C 9.3125 -7.769531 8.972656 -7.210938 8.515625 -6.640625 C 8.054688 -6.066406 7.242188 -5.25 6.078125 -4.1875 L 4.328125 -2.546875 L 4.328125 -2.40625 L 10.25 -2.40625 Z M 10.25 0 "/></g></g></g><g fill="#000000" fill-opacity="1"><g transform="translate(1337.488858, 680.710066)"><g><path d="M 2.109375 0 L 7.203125 -11.140625 L 0.515625 -11.140625 L 0.515625 -13.546875 L 10.25 -13.546875 L 10.25 -11.75 L 5.109375 0 Z M 2.109375 0 "/></g></g></g><g fill="#000000" fill-opacity="1"><g transform="translate(1378.804401, 680.710066)"><g><path d="M 10.25 0 L 0.765625 0 L 0.765625 -2 L 4.171875 -5.4375 C 5.171875 -6.46875 5.828125 -7.179688 6.140625 -7.578125 C 6.453125 -7.984375 6.675781 -8.351562 6.8125 -8.6875 C 6.945312 -9.03125 7.015625 -9.382812 7.015625 -9.75 C 7.015625 -10.289062 6.863281 -10.691406 6.5625 -10.953125 C 6.257812 -11.222656 5.859375 -11.359375 5.359375 -11.359375 C 4.835938 -11.359375 4.328125 -11.238281 3.828125 -11 C 3.335938 -10.757812 2.820312 -10.414062 2.28125 -9.96875 L 0.71875 -11.8125 C 1.382812 -12.382812 1.9375 -12.785156 2.375 -13.015625 C 2.820312 -13.253906 3.304688 -13.4375 3.828125 -13.5625 C 4.347656 -13.695312 4.925781 -13.765625 5.5625 -13.765625 C 6.414062 -13.765625 7.164062 -13.609375 7.8125 -13.296875 C 8.457031 -12.984375 8.957031 -12.546875 9.3125 -11.984375 C 9.675781 -11.429688 9.859375 -10.796875 9.859375 -10.078125 C 9.859375 -9.453125 9.75 -8.863281 9.53125 -8.3125 C 9.3125 -7.769531 8.972656 -7.210938 8.515625 -6.640625 C 8.054688 -6.066406 7.242188 -5.25 6.078125 -4.1875 L 4.328125 -2.546875 L 4.328125 -2.40625 L 10.25 -2.40625 Z M 10.25 0 "/></g></g></g><g fill="#000000" fill-opacity="1"><g transform="translate(1389.647391, 680.710066)"><g><path d="M 5.4375 -13.734375 C 6.738281 -13.734375 7.785156 -13.4375 8.578125 -12.84375 C 9.367188 -12.257812 9.765625 -11.46875 9.765625 -10.46875 C 9.765625 -9.769531 9.570312 -9.148438 9.1875 -8.609375 C 8.8125 -8.066406 8.195312 -7.582031 7.34375 -7.15625 C 8.351562 -6.613281 9.078125 -6.046875 9.515625 -5.453125 C 9.960938 -4.867188 10.1875 -4.222656 10.1875 -3.515625 C 10.1875 -2.398438 9.75 -1.503906 8.875 -0.828125 C 8.007812 -0.148438 6.863281 0.1875 5.4375 0.1875 C 3.945312 0.1875 2.78125 -0.125 1.9375 -0.75 C 1.09375 -1.382812 0.671875 -2.28125 0.671875 -3.4375 C 0.671875 -4.21875 0.875 -4.90625 1.28125 -5.5 C 1.695312 -6.101562 2.359375 -6.632812 3.265625 -7.09375 C 2.492188 -7.582031 1.9375 -8.101562 1.59375 -8.65625 C 1.25 -9.207031 1.078125 -9.816406 1.078125 -10.484375 C 1.078125 -11.453125 1.476562 -12.234375 2.28125 -12.828125 C 3.09375 -13.429688 4.144531 -13.734375 5.4375 -13.734375 Z M 3.328125 -3.609375 C 3.328125 -3.078125 3.507812 -2.660156 3.875 -2.359375 C 4.25 -2.066406 4.757812 -1.921875 5.40625 -1.921875 C 6.113281 -1.921875 6.644531 -2.070312 7 -2.375 C 7.351562 -2.6875 7.53125 -3.09375 7.53125 -3.59375 C 7.53125 -4.007812 7.351562 -4.394531 7 -4.75 C 6.644531 -5.113281 6.078125 -5.5 5.296875 -5.90625 C 3.984375 -5.300781 3.328125 -4.535156 3.328125 -3.609375 Z M 5.421875 -11.640625 C 4.929688 -11.640625 4.535156 -11.515625 4.234375 -11.265625 C 3.929688 -11.015625 3.78125 -10.679688 3.78125 -10.265625 C 3.78125 -9.890625 3.898438 -9.554688 4.140625 -9.265625 C 4.378906 -8.972656 4.8125 -8.671875 5.4375 -8.359375 C 6.039062 -8.640625 6.460938 -8.925781 6.703125 -9.21875 C 6.941406 -9.519531 7.0625 -9.867188 7.0625 -10.265625 C 7.0625 -10.691406 6.90625 -11.023438 6.59375 -11.265625 C 6.289062 -11.515625 5.898438 -11.640625 5.421875 -11.640625 Z M 5.421875 -11.640625 "/></g></g></g><g clip-path="url(#8023d2c67f)"><path fill="#000000" d="M 23.003906 643.210938 L 23.003906 704.730469 M 72.609375 643.210938 L 72.609375 704.730469 M 122.210938 643.210938 L 122.210938 704.730469 M 171.816406 643.210938 L 171.816406 704.730469 M 221.417969 643.210938 L 221.417969 704.730469 M 271.023438 643.210938 L 271.023438 704.730469 M 320.625 643.210938 L 320.625 704.730469 M 370.230469 643.210938 L 370.230469 704.730469 M 419.832031 643.210938 L 419.832031 704.730469 M 469.4375 643.210938 L 469.4375 704.730469 M 519.042969 643.210938 L 519.042969 704.730469 M 568.644531 643.210938 L 568.644531 704.730469 M 618.25 643.210938 L 618.25 704.730469 M 667.851562 643.210938 L 667.851562 704.730469 M 717.457031 643.210938 L 717.457031 704.730469 M 767.058594 643.210938 L 767.058594 704.730469 M 816.664062 643.210938 L 816.664062 704.730469 M 866.265625 643.210938 L 866.265625 704.730469 M 915.871094 643.210938 L 915.871094 704.730469 M 965.476562 643.210938 L 965.476562 704.730469 M 1015.078125 643.210938 L 1015.078125 704.730469 M 1064.683594 643.210938 L 1064.683594 704.730469 M 1114.285156 643.210938 L 1114.285156 704.730469 M 1163.890625 643.210938 L 1163.890625 704.730469 M 1213.492188 643.210938 L 1213.492188 704.730469 M 1263.097656 643.210938 L 1263.097656 704.730469 M 1312.699219 643.210938 L 1312.699219 704.730469 M 1362.304688 643.210938 L 1362.304688 704.730469 M 1416.996094 643.210938 L 1416.996094 704.730469 M 21.503906 641.710938 L 1418.496094 641.710938 M 21.503906 706.230469 L 1418.496094 706.230469 " fill-opacity="1" fill-rule="nonzero"/></g><g clip-path="url(#7eaad87a62)"><path stroke-linecap="butt" transform="matrix(0.75, 0, 0, 0.75, 21.504208, 640.210068)" fill="none" stroke-linejoin="miter" d="M 1.999598 4.00116 L 1.999598 86.027206 M 68.140226 4.00116 L 68.140226 86.027206 M 134.275646 4.00116 L 134.275646 86.027206 M 200.416274 4.00116 L 200.416274 86.027206 M 266.551694 4.00116 L 266.551694 86.027206 M 332.692323 4.00116 L 332.692323 86.027206 M 398.827743 4.00116 L 398.827743 86.027206 M 464.968371 4.00116 L 464.968371 86.027206 M 531.103791 4.00116 L 531.103791 86.027206 M 597.244419 4.00116 L 597.244419 86.027206 M 663.385048 4.00116 L 663.385048 86.027206 M 729.520468 4.00116 L 729.520468 86.027206 M 795.661096 4.00116 L 795.661096 86.027206 M 861.796516 4.00116 L 861.796516 86.027206 M 927.937144 4.00116 L 927.937144 86.027206 M 994.072564 4.00116 L 994.072564 86.027206 M 1060.213193 4.00116 L 1060.213193 86.027206 M 1126.348613 4.00116 L 1126.348613 86.027206 M 1192.489241 4.00116 L 1192.489241 86.027206 M 1258.629869 4.00116 L 1258.629869 86.027206 M 1324.765289 4.00116 L 1324.765289 86.027206 M 1390.905918 4.00116 L 1390.905918 86.027206 M 1457.041338 4.00116 L 1457.041338 86.027206 M 1523.181966 4.00116 L 1523.181966 86.027206 M 1589.317386 4.00116 L 1589.317386 86.027206 M 1655.458014 4.00116 L 1655.458014 86.027206 M 1721.593434 4.00116 L 1721.593434 86.027206 M 1787.734063 4.00116 L 1787.734063 86.027206 M 1860.655941 4.00116 L 1860.655941 86.027206 M -0.000402254 2.00116 L 1862.655941 2.00116 M -0.000402254 88.027206 L 1862.655941 88.027206 " stroke="#000000" stroke-width="4" stroke-opacity="1" stroke-miterlimit="4"/></g><g clip-path="url(#b7bc2418b6)"><path fill="#040606" d="M 708.199219 607.09375 C 708.199219 606.390625 708.582031 605.703125 709.246094 605.363281 C 710.1875 604.878906 711.335938 605.261719 711.8125 606.21875 L 721.003906 624.625 L 728.214844 605.578125 C 728.59375 604.582031 729.695312 604.082031 730.683594 604.464844 C 731.667969 604.847656 732.152344 605.96875 731.78125 606.972656 L 723.027344 630.089844 C 722.757812 630.804688 722.097656 631.289062 721.339844 631.328125 C 720.585938 631.367188 719.878906 630.953125 719.539062 630.265625 L 708.402344 607.96875 C 708.265625 607.6875 708.199219 607.386719 708.199219 607.09375 " fill-opacity="1" fill-rule="nonzero"/></g><g clip-path="url(#7e4e22ad08)"><path fill="#040606" d="M 708.199219 505.640625 C 708.199219 505.34375 708.265625 505.046875 708.40625 504.765625 L 719.539062 482.472656 C 719.878906 481.789062 720.585938 481.371094 721.339844 481.414062 C 722.097656 481.449219 722.757812 481.933594 723.027344 482.652344 L 731.78125 505.761719 C 732.15625 506.765625 731.664062 507.882812 730.683594 508.265625 C 729.695312 508.648438 728.59375 508.152344 728.214844 507.152344 L 721.003906 488.117188 L 711.8125 506.511719 C 711.335938 507.472656 710.1875 507.851562 709.246094 507.367188 C 708.582031 507.027344 708.199219 506.34375 708.199219 505.640625 " fill-opacity="1" fill-rule="nonzero"/></g><path fill="#040606" d="M 718.796875 625.488281 L 718.902344 485.753906 C 718.902344 484.683594 719.757812 483.816406 720.8125 483.816406 C 721.867188 483.816406 722.722656 484.683594 722.722656 485.753906 L 722.617188 625.488281 C 722.617188 626.558594 721.761719 627.425781 720.703125 627.425781 C 719.648438 627.425781 718.796875 626.558594 718.796875 625.488281 " fill-opacity="1" fill-rule="nonzero"/></svg>